<svg xmlns="http://www.w3.org/2000/svg" xmlns:xlink="http://www.w3.org/1999/xlink" width="48" height="48" viewBox="0 0 48 48">
  <defs>
    <clipPath id="clip-path">
      <rect id="Rectangle_1144" data-name="Rectangle 1144" width="48" height="48" transform="translate(1308 411)" fill="#fff"/>
    </clipPath>
  </defs>
  <g id="Canvas" transform="translate(-1308 -411)" clip-path="url(#clip-path)">
    <g id="picture-2" transform="translate(1316.606 418.714)">
      <path id="Path_215" data-name="Path 215" d="M0,0V34.24H26.443V0ZM25.114,1.009,23.823,2.68H2.62L1.33,1.009ZM2.849,30.551Zm0,0V3.688H23.595V30.551Zm20.746,0ZM.779,1.722,2.07,3.393V30.847L.779,32.518Zm.551,31.51L2.62,31.56h21.2l1.291,1.671Zm24.335-.713-1.291-1.671V3.393l1.291-1.671Z" transform="translate(2 -0.952)" fill="#222" stroke="#222" stroke-width="0.3"/>
      <g id="Group_409" data-name="Group 409" transform="translate(6.95 7.864)">
        <path id="Path_222" data-name="Path 222" d="M16.479,5.213l0-.007h0v0l-.007-.016a1.457,1.457,0,0,0-1.224-.793,6.505,6.505,0,0,0-1.881.043A6.394,6.394,0,0,0,12.91,3.9,2.213,2.213,0,1,0,9.28,1.977,6.377,6.377,0,0,0,2.061,6.832a.242.242,0,1,0,.472.109A5.913,5.913,0,0,1,4.58,3.682a5.824,5.824,0,0,1,3.691-1.3,5.927,5.927,0,0,1,1.011.087A2.211,2.211,0,0,0,12.5,4.175a5.888,5.888,0,0,1,1.4,2.367c-.165.109-.352.227-.565.353a34.447,34.447,0,0,1-9.807,3.67c-.237.043-.449.076-.641.1A5.84,5.84,0,0,1,2.6,9.855a.245.245,0,0,0-.007-.026,5.879,5.879,0,0,1-.208-1.557c0-.113,0-.227.01-.339A.242.242,0,0,0,1.908,7.9c-.007.121-.01.245-.01.367,0,.157.006.313.017.468A6.363,6.363,0,0,0,.382,10.021a1.34,1.34,0,0,0-.32,1.3l0,.007c.14.4.566.865,1.8.865h.056a10.21,10.21,0,0,0,1.252-.1,6.374,6.374,0,0,0,9.957.308.242.242,0,1,0-.369-.314,5.889,5.889,0,0,1-9.039-.08q.6-.105,1.287-.269a.242.242,0,1,0-.113-.471c-.595.142-1.144.251-1.643.325h0a10.055,10.055,0,0,1-1.334.117c-.989.012-1.3-.288-1.392-.541h0c-.175-.487.3-1.107,1.456-1.888q.042.265.106.525a4.827,4.827,0,0,0-1.033.951l0,0,0,0,0,0-.009.014-.005.009-.006.012-.005.012,0,.007v0l0,.013,0,.011,0,.011,0,.013v.009c0,.005,0,.01,0,.016s0,0,0,.006,0,.012,0,.018v0c0,.006,0,.012,0,.019v0c0,.006,0,.012,0,.018l0,.006,0,.016,0,.008.005.013,0,.009.006.012.005.009.007.011.006.007.009.012.005.005.012.012,0,0,.014.012h0a.238.238,0,0,0,.032.02h0l.023.01a2.187,2.187,0,0,0,.756.1,9.8,9.8,0,0,0,1.708-.185,35.033,35.033,0,0,0,9.972-3.732,5.188,5.188,0,0,0,1.932-1.56l.009-.02v0a.243.243,0,0,0,.012-.038v0c0-.006,0-.012,0-.019V5.664c0-.006,0-.012,0-.018s0,0,0-.007,0-.01,0-.015,0-.006,0-.009,0-.009,0-.014l0-.01,0-.013,0-.01,0-.014,0-.008-.007-.015,0-.006-.009-.016,0,0L15.5,5.492l0,0-.011-.013,0,0-.011-.01-.007-.006-.01-.007-.01-.007-.008-.005-.013-.007,0,0-.006,0L15.4,5.415l-.011,0-.011,0-.015,0-.006,0h-.008a4.85,4.85,0,0,0-1.4-.038q-.125-.244-.271-.476c1.344-.159,2.154.01,2.352.5.191.547-.437,1.26-1.92,2.182A35.408,35.408,0,0,1,5.9,11.006a.242.242,0,1,0,.131.467A36.648,36.648,0,0,0,14.159,8.1c0,.057,0,.114,0,.171a5.883,5.883,0,0,1-.815,2.99.242.242,0,1,0,.417.246,6.369,6.369,0,0,0,.882-3.237c0-.156-.006-.313-.017-.467a6.549,6.549,0,0,0,1.5-1.242,1.361,1.361,0,0,0,.349-1.35Zm-6.727-3a1.729,1.729,0,1,1,1.729,1.729A1.731,1.731,0,0,1,9.752,2.213ZM1.711,10.739a5.4,5.4,0,0,1,.517-.439q.072.213.159.422a5.176,5.176,0,0,1-.675.016ZM14.839,5.821a5.172,5.172,0,0,1-.52.432q-.072-.214-.158-.423a5.407,5.407,0,0,1,.678-.009Z" transform="translate(0 0)" fill="#222" stroke="#222" stroke-width="0.4"/>
      </g>
    </g>
  </g>
</svg>