<svg xmlns="http://www.w3.org/2000/svg" xmlns:xlink="http://www.w3.org/1999/xlink" width="48" height="48" viewBox="0 0 48 48">
  <defs>
    <clipPath id="clip-path">
      <rect id="Rectangle_1143" data-name="Rectangle 1143" width="48" height="48" transform="translate(1308 411)" fill="#fff"/>
    </clipPath>
  </defs>
  <g id="Mask_Group_4" data-name="Mask Group 4" transform="translate(-1308 -411)" clip-path="url(#clip-path)">
    <g id="constellation" transform="translate(1287.618 387.39)">
      <path id="Path_131" data-name="Path 131" d="M53.383,33.224a.578.578,0,0,0,.817,0l.615-.615.615.615a.578.578,0,1,0,.817-.817l-.615-.615.615-.615a.578.578,0,1,0-.817-.817l-.615.615-.615-.615a.578.578,0,1,0-.817.817l.615.615-.615.615A.577.577,0,0,0,53.383,33.224Z" transform="translate(-22.38 0)" fill="#222"/>
      <path id="Path_132" data-name="Path 132" d="M231.84,129.393a.578.578,0,0,0,.409-.986l-.615-.615.615-.615a.578.578,0,1,0-.817-.817l-.615.615-.615-.615a.578.578,0,1,0-.817.817l.615.615-.615.615a.578.578,0,1,0,.817.817l.615-.615.615.615A.575.575,0,0,0,231.84,129.393Z" transform="translate(-172.956 -82.132)" fill="#222"/>
      <path id="Path_133" data-name="Path 133" d="M248.248,230.359a.578.578,0,0,0-.817,0l-.615.615-.615-.615a.578.578,0,1,0-.817.817l.615.615-.615.615a.578.578,0,1,0,.817.817l.615-.615.615.615a.578.578,0,0,0,.817-.817l-.615-.615.615-.615A.578.578,0,0,0,248.248,230.359Z" transform="translate(-186.645 -171.108)" fill="#222"/>
      <circle id="Ellipse_47" data-name="Ellipse 47" cx="0.578" cy="0.578" r="0.578" transform="translate(29.546 40.167)" fill="#222"/>
      <circle id="Ellipse_48" data-name="Ellipse 48" cx="0.578" cy="0.578" r="0.578" transform="translate(41.102 37.855)" fill="#222"/>
      <circle id="Ellipse_49" data-name="Ellipse 49" cx="0.578" cy="0.578" r="0.578" transform="translate(52.081 52.879)" fill="#222"/>
      <circle id="Ellipse_50" data-name="Ellipse 50" cx="0.578" cy="0.578" r="0.578" transform="translate(46.303 61.547)" fill="#222"/>
      <circle id="Ellipse_51" data-name="Ellipse 51" cx="0.578" cy="0.578" r="0.578" transform="translate(27.234 60.969)" fill="#222"/>
      <path id="Path_134" data-name="Path 134" d="M81.383,129.224a.578.578,0,0,0,.817,0l.615-.615.615.615a.578.578,0,0,0,.817-.817l-.615-.615.615-.615a.578.578,0,0,0-.817-.817l-.615.615-.615-.615a.578.578,0,1,0-.817.817l.615.615-.615.615a.577.577,0,0,0,0,.817Z" transform="translate(-46.336 -82.132)" fill="#222"/>
      <circle id="Ellipse_52" data-name="Ellipse 52" cx="0.578" cy="0.578" r="0.578" transform="translate(52.081 32.077)" fill="#222"/>
      <path id="Path_135" data-name="Path 135" d="M62.482,46.369l-.5-.924.475-.938a.754.754,0,0,0-.811-1.082l-1.034.194-.747-.743a.754.754,0,0,0-1.278.439l-.136,1.043-.936.48a.747.747,0,0,0-.092,1.278l-5.9,2.458a.736.736,0,0,0-.856-.526l-1.034.194-.747-.743a.754.754,0,0,0-1.278.439l-.136,1.043-.936.48a.754.754,0,0,0,.021,1.352l.95.451.167,1.038a.747.747,0,0,0,.091.247L46.671,58l-.1-.1a.754.754,0,0,0-1.278.439l-.136,1.043-.078.04-12.682.7.009-.018a.754.754,0,0,0-.811-1.082l-1.034.194-.747-.743a.754.754,0,0,0-1.278.439L28.4,59.959l-.936.48a.754.754,0,0,0,.021,1.352l.95.451L28.6,63.28a.749.749,0,0,0,.523.6.765.765,0,0,0,.223.034.745.745,0,0,0,.546-.237l.293-.31L34.1,71.851,33.82,72a.754.754,0,0,0,.021,1.352l.95.451.167,1.038a.749.749,0,0,0,.523.6.765.765,0,0,0,.223.034.745.745,0,0,0,.546-.237l.722-.764,1.039.162a.754.754,0,0,0,.778-1.106l-.5-.924.241-.476c.017-.008.035-.012.052-.021l8.592-5.012a.578.578,0,0,0,.287-.5V62.35l.955.149a.754.754,0,0,0,.778-1.106l-.5-.924.475-.938a.754.754,0,0,0-.811-1.082l-.615.115L48.9,52.743a.71.71,0,0,0,.062-.044l.722-.764,1.039.162a.754.754,0,0,0,.778-1.106l-.5-.924.016-.033,7.509-3.129.124.772a.749.749,0,0,0,.523.6.765.765,0,0,0,.223.034.745.745,0,0,0,.546-.237l.722-.764,1.039.162a.755.755,0,0,0,.779-1.106ZM29.614,62.293l-.086-.534a.577.577,0,0,0-.323-.43l-.49-.232.482-.247a.577.577,0,0,0,.309-.44l.07-.538.384.382a.582.582,0,0,0,.514.159l.533-.1-.245.484a.578.578,0,0,0,.009.537l.26.476-.536-.083a.57.57,0,0,0-.509.174Zm7.237,10.989a.571.571,0,0,0-.509.174l-.372.393-.086-.534a.577.577,0,0,0-.323-.43l-.49-.232.482-.247a.577.577,0,0,0,.309-.44l.07-.538.384.382a.581.581,0,0,0,.514.159l.533-.1-.245.484a.578.578,0,0,0,.009.537l.26.476Zm1.734-2.518a.755.755,0,0,0-.635-.181l-1.034.194-.747-.743a.754.754,0,0,0-1.278.439l-.033.256L31.3,63.021l.356.055a.754.754,0,0,0,.778-1.106L32.07,61.3l11.758-.654a.742.742,0,0,0,.414.566l.95.451L45.36,62.7a.749.749,0,0,0,.523.6.766.766,0,0,0,.223.034.738.738,0,0,0,.2-.04v2.966Zm8.943-10.009.26.476-.536-.083a1.341,1.341,0,0,0-.9.437l-.065-.4a.577.577,0,0,0-.323-.43l-.425-.2a.566.566,0,0,0,.445-.3.575.575,0,0,0,.281-.421l.07-.538.384.382a.582.582,0,0,0,.514.159l.533-.1-.245.484a.577.577,0,0,0,.008.537Zm2.035-10.009a.569.569,0,0,0-.509.174l-.372.393L48.6,50.78a.577.577,0,0,0-.323-.43l-.49-.232.482-.247a.577.577,0,0,0,.309-.44l.07-.538.384.382a.585.585,0,0,0,.514.159l.471-.088a.57.57,0,0,0-.078.265l-.105.207a.578.578,0,0,0,.009.537l.26.476Zm10.979-4.623a.569.569,0,0,0-.509.174l-.372.393-.086-.534a.577.577,0,0,0-.323-.43l-.49-.232.482-.247a.577.577,0,0,0,.309-.44l.07-.538.384.382a.583.583,0,0,0,.514.159l.533-.1-.245.484a.578.578,0,0,0,.009.537l.26.476Z" transform="translate(0 -10.667)" fill="#222"/>
    </g>
  </g>
</svg>
