<svg xmlns="http://www.w3.org/2000/svg" xmlns:xlink="http://www.w3.org/1999/xlink" width="24" height="24" viewBox="0 0 24 24">
  <defs>
    <clipPath id="clip-path">
      <rect id="Rectangle_140" data-name="Rectangle 140" width="24" height="24" transform="translate(1507 423)" fill="#fff" stroke="#707070" stroke-width="1"/>
    </clipPath>
  </defs>
  <g id="Mask_Group_3" data-name="Mask Group 3" transform="translate(-1507 -423)" clip-path="url(#clip-path)">
    <path id="ic_today_24px" d="M14.2,2.4h-.7V1H12.1V2.4H6.5V1H5.1V2.4H4.4A1.394,1.394,0,0,0,3.007,3.8L3,13.6A1.4,1.4,0,0,0,4.4,15h9.8a1.4,1.4,0,0,0,1.4-1.4V3.8A1.4,1.4,0,0,0,14.2,2.4Zm0,11.2H4.4V5.9h9.8ZM5.8,7.3H9.3v3.5H5.8Z" transform="translate(1509.7 427)" fill="#222"/>
  </g>
</svg>
