<svg xmlns="http://www.w3.org/2000/svg" xmlns:xlink="http://www.w3.org/1999/xlink" width="48" height="48" viewBox="0 0 48 48">
  <defs>
    <clipPath id="clip-path">
      <rect id="Rectangle_1144" data-name="Rectangle 1144" width="48" height="48" transform="translate(1308 411)" fill="#fff"/>
    </clipPath>
  </defs>
  <g id="Download" transform="translate(-1308 -411)" clip-path="url(#clip-path)">
    <g id="surface1" transform="translate(1318.108 418.12)">
      <path id="Path_218" data-name="Path 218" d="M24.453,15.532V8.742a.786.786,0,0,0-.217-.516L16.624.232A.759.759,0,0,0,16.078,0H4.008A4.021,4.021,0,0,0,0,4.046V26.869a4,4,0,0,0,4.008,4.016h9.527A10.284,10.284,0,1,0,24.453,15.532ZM16.826,2.625,21.933,8H18.62a1.806,1.806,0,0,1-1.795-1.8ZM4.008,29.389A2.505,2.505,0,0,1,1.5,26.869V4.046A2.526,2.526,0,0,1,4.008,1.5H15.33V6.2a3.3,3.3,0,0,0,3.29,3.3h4.337v5.84c-.224-.007-.4-.03-.6-.03a10.434,10.434,0,0,0-6.82,2.573h-9.5a.748.748,0,1,0,0,1.5h8.106a11.9,11.9,0,0,0-1.316,2.318H6.042a.748.748,0,1,0,0,1.5h6.3a10.263,10.263,0,0,0,.449,6.207H4.008Zm18.344,5A8.787,8.787,0,1,1,31.139,25.6,8.8,8.8,0,0,1,22.352,34.392Zm0,0" transform="translate(0)" fill="#222"/>
      <path id="Path_219" data-name="Path 219" d="M76.3,203.179h7.575a.748.748,0,1,0,0-1.5H76.3a.748.748,0,0,0,0,1.5Zm0,0" transform="translate(-70.256 -187.55)" fill="#222"/>
      <path id="Path_220" data-name="Path 220" d="M254.631,288.812l-3.073,3.313v-8.166a.748.748,0,1,0-1.5,0v8.166l-3.1-3.313a.755.755,0,0,0-1.062-.037.745.745,0,0,0-.037,1.054l4.375,4.7a.742.742,0,0,0,1.092,0l4.382-4.7a.743.743,0,1,0-1.085-1.017Zm0,0" transform="translate(-228.45 -263.364)" fill="#222"/>
    </g>
  </g>
</svg>