<svg xmlns="http://www.w3.org/2000/svg" xmlns:xlink="http://www.w3.org/1999/xlink" width="48" height="48" viewBox="0 0 48 48">
  <defs>
    <clipPath id="clip-path">
      <rect id="Rectangle_1144" data-name="Rectangle 1144" width="48" height="48" transform="translate(1308 411)" fill="#fff"/>
    </clipPath>
  </defs>
  <g id="Mask_Group_5" data-name="Mask Group 5" transform="translate(-1308 -411)" clip-path="url(#clip-path)">
    <g id="globe" transform="translate(1314.437 416.916)">
      <g id="Group_289" data-name="Group 289" transform="translate(0 0.022)">
        <path id="Path_141" data-name="Path 141" d="M17.543.022a17.59,17.59,0,0,0-1.885.1,16.579,16.579,0,0,0-1.7.271q-.162.034-.325.072A17.565,17.565,0,0,0,4.97,5.318q-.329.338-.645.7A17.584,17.584,0,0,0,30.119,29.895q.33-.338.645-.7A17.584,17.584,0,0,0,17.543.022ZM5.751,6.2c.093-.1.189-.188.283-.281s.217-.215.329-.319.2-.179.3-.268.226-.2.342-.3.207-.169.311-.252.234-.188.355-.278.215-.158.324-.234.243-.176.367-.257.223-.148.335-.22.251-.159.379-.234.23-.136.346-.2.26-.146.391-.216.234-.124.352-.183c.134-.067.268-.132.4-.2.117-.056.239-.111.36-.164l.417-.176c.121-.05.242-.1.365-.145.142-.054.285-.1.429-.155.123-.043.245-.086.369-.126.146-.047.293-.09.441-.133.124-.036.246-.073.37-.106l.142-.035A14.544,14.544,0,0,0,9.714,7.8,19.687,19.687,0,0,1,5.7,6.256C5.717,6.235,5.734,6.215,5.751,6.2Zm-.843.944a20.365,20.365,0,0,0,4.448,1.77A30.416,30.416,0,0,0,8.173,17.02H1.145A16.377,16.377,0,0,1,4.908,7.141Zm0,20.931a16.379,16.379,0,0,1-3.763-9.879H8.173A30.413,30.413,0,0,0,9.356,26.3,20.379,20.379,0,0,0,4.908,28.072Zm8.407,5.39c-.118-.03-.241-.069-.363-.1-.148-.043-.3-.087-.444-.134-.124-.04-.246-.083-.368-.125-.144-.05-.288-.1-.431-.155-.122-.046-.242-.095-.363-.144l-.419-.176q-.179-.079-.357-.163c-.137-.064-.273-.13-.41-.2-.117-.059-.234-.117-.352-.181-.132-.071-.264-.144-.4-.219s-.229-.132-.342-.2c-.129-.077-.256-.157-.382-.239-.111-.071-.223-.143-.332-.217-.125-.084-.249-.172-.371-.26-.107-.077-.215-.154-.32-.234-.121-.091-.24-.186-.359-.281S7.1,30.266,7,30.181c-.117-.1-.23-.2-.344-.3s-.2-.176-.3-.266-.22-.213-.329-.32-.19-.185-.283-.281l-.05-.055a19.673,19.673,0,0,1,4.016-1.546A14.547,14.547,0,0,0,13.458,33.5C13.41,33.485,13.362,33.475,13.315,33.462Zm3.643.51c-2.508-.356-4.707-2.974-6.09-6.84a29.787,29.787,0,0,1,6.09-.717Zm0-8.729a30.867,30.867,0,0,0-6.458.77,29.323,29.323,0,0,1-1.154-7.821h7.612v7.051Zm0-8.223H9.345A29.317,29.317,0,0,1,10.5,9.2a30.878,30.878,0,0,0,6.458.77Zm0-8.223a29.756,29.756,0,0,1-6.09-.717c1.383-3.866,3.582-6.483,6.09-6.84ZM30.179,7.141a16.379,16.379,0,0,1,3.763,9.879H26.914a30.413,30.413,0,0,0-1.183-8.109A20.386,20.386,0,0,0,30.179,7.141ZM21.768,1.75c.123.03.246.069.368.1.148.043.3.087.444.134.124.04.246.083.368.125.144.05.288.1.431.155.122.046.242.095.363.144l.419.176q.179.079.357.163c.137.064.273.13.41.2.117.059.234.117.352.181.132.071.264.144.4.219s.229.132.342.2c.129.077.256.157.382.239.111.071.223.143.332.217.125.084.248.172.37.26s.215.154.321.234.239.185.358.28c.1.082.207.164.308.25.117.1.23.2.344.3s.2.176.3.266.22.213.329.32.19.185.283.281l.05.055A19.673,19.673,0,0,1,25.376,7.8a14.547,14.547,0,0,0-3.751-6.082C21.672,1.727,21.72,1.737,21.768,1.75ZM18.13,1.241c2.508.356,4.707,2.974,6.09,6.84a29.787,29.787,0,0,1-6.09.717V1.241Zm0,8.729a30.867,30.867,0,0,0,6.458-.77,29.323,29.323,0,0,1,1.154,7.821H18.13Zm0,8.223h7.612a29.317,29.317,0,0,1-1.154,7.821h0a30.877,30.877,0,0,0-6.458-.77Zm0,15.78V26.416a29.756,29.756,0,0,1,6.09.717C22.836,31,20.638,33.616,18.13,33.972Zm11.207-4.956c-.093.1-.188.188-.283.281s-.218.216-.33.32-.2.176-.3.267-.227.2-.343.3-.207.168-.311.251-.234.188-.355.278-.215.158-.324.234-.243.176-.367.257-.223.148-.335.219-.252.159-.379.234-.229.135-.345.2-.26.146-.392.216-.234.124-.352.183c-.134.067-.268.132-.4.2-.117.056-.239.111-.36.164l-.417.176c-.121.049-.242.1-.364.145-.143.055-.287.106-.431.155-.122.043-.244.086-.368.125-.147.047-.293.091-.443.134-.123.036-.246.073-.369.106l-.142.035a14.544,14.544,0,0,0,3.746-6.083,19.687,19.687,0,0,1,4.016,1.546C29.37,28.978,29.353,29,29.336,29.016Zm.843-.944a20.365,20.365,0,0,0-4.448-1.77,30.416,30.416,0,0,0,1.183-8.109h7.028A16.376,16.376,0,0,1,30.179,28.072Z" transform="translate(0 -0.022)" fill="#222" stroke="#222" stroke-width="0.1"/>
      </g>
    </g>
  </g>
</svg>
