<svg xmlns="http://www.w3.org/2000/svg" xmlns:xlink="http://www.w3.org/1999/xlink" width="48" height="48" viewBox="0 0 48 48">
  <defs>
    <clipPath id="clip-path">
      <rect id="Rectangle_1145" data-name="Rectangle 1145" width="48" height="48" transform="translate(1308 411)" fill="#fff"/>
    </clipPath>
  </defs>
  <g id="Mask_Group_6" data-name="Mask Group 6" transform="translate(-1308 -411)" clip-path="url(#clip-path)">
    <g id="surface1" transform="translate(1315.517 418.099)">
      <path id="Path_142" data-name="Path 142" d="M5.2,11.891c3.671-3.765,8.31-5.924,12.729-5.924a10.19,10.19,0,0,1,7.5,2.961c3.541,3.632,2.57,10.538-2.166,15.395A7.389,7.389,0,0,1,18.2,26.691a3.925,3.925,0,0,1-2.891-1.134,2.253,2.253,0,0,1-.248-2.387c.037.043.065.092.106.133a2.361,2.361,0,0,0,1.694.673,2.832,2.832,0,0,0,.486-.05,4,4,0,0,0,4.462-1.141c2.961-3.037,3.5-7.423,1.2-9.779a8.607,8.607,0,0,0-6.335-2.519,14.7,14.7,0,0,0-10.255,4.74C-.386,22.209-1.681,32.242,3.535,37.592l.378.388.809-.791L4.344,36.8C-.449,31.889.847,22.564,7.232,16.013a13.571,13.571,0,0,1,9.447-4.4A7.5,7.5,0,0,1,22.2,13.792c1.873,1.92,1.334,5.6-1.2,8.2a3.557,3.557,0,0,1-1.968,1.058c.013-.012.027-.021.041-.033a3.2,3.2,0,0,0,.948-1.959,2.764,2.764,0,0,0,0-.443,3.609,3.609,0,0,0,.005-4.544,5.025,5.025,0,0,0-3.7-1.476,8.418,8.418,0,0,0-5.877,2.71C5.286,22.6,4.314,30.211,8.28,34.278a11.29,11.29,0,0,0,8.311,3.3c4.723,0,9.657-2.283,13.538-6.264l.5-.511-.809-.791-.5.511c-3.671,3.764-8.31,5.923-12.73,5.923a10.191,10.191,0,0,1-7.5-2.962c-3.541-3.632-2.57-10.538,2.166-15.395a7.393,7.393,0,0,1,5.069-2.368,3.926,3.926,0,0,1,2.891,1.137,2.243,2.243,0,0,1,.251,2.391c-.038-.045-.067-.095-.109-.137a2.436,2.436,0,0,0-2.172-.621,4,4,0,0,0-4.468,1.137c-2.961,3.037-3.5,7.423-1.2,9.779a8.607,8.607,0,0,0,6.335,2.519A14.7,14.7,0,0,0,28.1,27.189c6.81-6.981,8.106-17.014,2.889-22.364l-.379-.388-.808.789.378.388c4.793,4.913,3.5,14.241-2.888,20.789a13.57,13.57,0,0,1-9.447,4.4,7.505,7.505,0,0,1-5.526-2.179c-1.873-1.92-1.334-5.6,1.2-8.2a3.558,3.558,0,0,1,1.966-1.057c-.012.012-.026.02-.039.033a3.2,3.2,0,0,0-.948,1.96,2.777,2.777,0,0,0,0,.461,3.623,3.623,0,0,0-.005,4.527,5.028,5.028,0,0,0,3.7,1.476,8.417,8.417,0,0,0,5.876-2.711c5.16-5.291,6.132-12.9,2.166-16.972a11.3,11.3,0,0,0-8.312-3.3C13.211,4.837,8.276,7.121,4.4,11.1l-.5.509.809.79ZM16.25,20.2a2.044,2.044,0,0,1,1.412-.63,1.243,1.243,0,0,1,.9.348,1.281,1.281,0,0,1,.339,1.044,2.078,2.078,0,0,1-.621,1.263,1.672,1.672,0,0,1-2.308.282,1.28,1.28,0,0,1-.339-1.044A2.075,2.075,0,0,1,16.25,20.2Zm0,0" transform="translate(-0.321 -4.267)" fill="#222" stroke="#222" stroke-width="0.2"/>
      <path id="Path_143" data-name="Path 143" d="M1.129,3.388H2.259V2.259H3.388V1.129H2.259V0H1.129V1.129H0V2.259H1.129Zm0,0" fill="#222" stroke="#222" stroke-width="0.2"/>
      <path id="Path_144" data-name="Path 144" d="M29.375,249.688H30.5v1.129H29.375Zm0,0" transform="translate(-28.246 -240.087)" fill="#222" stroke="#222" stroke-width="0.2"/>
      <path id="Path_145" data-name="Path 145" d="M751.318,796.513v-1.129h1.129v-1.13h-1.129v-1.129h-1.129v1.129h-1.13v1.13h1.13v1.129Zm0,0" transform="translate(-720.258 -762.63)" fill="#222" stroke="#222" stroke-width="0.2"/>
      <path id="Path_146" data-name="Path 146" d="M675.621,29.375h1.13V30.5h-1.13Zm0,0" transform="translate(-649.644 -28.246)" fill="#222" stroke="#222" stroke-width="0.2"/>
      <path id="Path_147" data-name="Path 147" d="M851.875,602.184H853v1.13h-1.13Zm0,0" transform="translate(-819.121 -579.03)" fill="#222" stroke="#222" stroke-width="0.2"/>
      <path id="Path_148" data-name="Path 148" d="M190.938,851.875h1.129V853h-1.129Zm0,0" transform="translate(-183.596 -819.121)" fill="#222" stroke="#222" stroke-width="0.2"/>
      <path id="Path_149" data-name="Path 149" d="M0,352.5H1.129v1.129H0Zm0,0" transform="translate(0 -338.946)" fill="#222" stroke="#222" stroke-width="0.2"/>
      <path id="Path_150" data-name="Path 150" d="M220.313,0h1.129V1.129h-1.129Zm0,0" transform="translate(-211.842)" fill="#222" stroke="#222" stroke-width="0.2"/>
    </g>
  </g>
</svg>