<svg xmlns="http://www.w3.org/2000/svg" xmlns:xlink="http://www.w3.org/1999/xlink" width="48" height="48" viewBox="0 0 48 48">
  <defs>
    <clipPath id="clip-path">
      <rect id="Rectangle_1145" data-name="Rectangle 1145" width="48" height="48" transform="translate(1308 411)" fill="#fff"/>
    </clipPath>
  </defs>
  <g id="Mask_Group_6" data-name="Mask Group 6" transform="translate(-1308 -411)" clip-path="url(#clip-path)">
    <g id="moon" transform="translate(1312.684 416)">
      <path id="Path_151" data-name="Path 151" d="M116.538,2.4h.691V3.1a.571.571,0,1,0,1.143,0V2.4h.691a.571.571,0,1,0,0-1.143h-.691V.571a.571.571,0,1,0-1.143,0v.691h-.691a.571.571,0,0,0,0,1.143Z" transform="translate(-107.132)" fill="#222" stroke="#222" stroke-width="0.1"/>
      <path id="Path_152" data-name="Path 152" d="M351,465.129H350.3v-.691a.571.571,0,0,0-1.143,0v.691h-.691a.571.571,0,1,0,0,1.143h.691v.691a.571.571,0,0,0,1.143,0v-.691H351a.571.571,0,0,0,0-1.143Z" transform="translate(-321.395 -428.527)" fill="#222" stroke="#222" stroke-width="0.1"/>
      <path id="Path_155" data-name="Path 155" d="M145.092,65.392a1.021,1.021,0,0,0-1.958-.4,10.145,10.145,0,0,1-9.342,6.166h-.027a10.158,10.158,0,0,1-3.963-19.5,1.021,1.021,0,0,0-.4-1.958h-.024a15.715,15.715,0,0,0-10.244,3.8.571.571,0,0,0,.745.866,14.571,14.571,0,0,1,8.938-3.509A11.3,11.3,0,0,0,133.762,72.3h.03a11.284,11.284,0,0,0,10.146-6.322,14.569,14.569,0,0,1-24.061,10.493.571.571,0,1,0-.745.866,15.679,15.679,0,0,0,4.424,2.683,35.165,35.165,0,0,0,3.763.98,15.724,15.724,0,0,0,17.773-15.583v-.026Z" transform="translate(-109.872 -45.914)" fill="#222" stroke="#222" stroke-width="0.1"/>
      <path id="Path_156" data-name="Path 156" d="M50.843,129.375a14.572,14.572,0,0,1,3.52-9.5.571.571,0,1,0-.866-.745,15.717,15.717,0,0,0,0,20.487.571.571,0,0,0,.866-.745A14.569,14.569,0,0,1,50.843,129.375Z" transform="translate(-45.914 -109.871)" fill="#222" stroke="#222" stroke-width="0.1"/>
      <path id="Path_157" data-name="Path 157" d="M456.154,381.033a.571.571,0,0,0-.571.571v1.262a.571.571,0,1,0,1.143,0V381.6A.571.571,0,0,0,456.154,381.033Z" transform="translate(-420.874 -352.004)" fill="#222" stroke="#222" stroke-width="0.1"/>
      <path id="Path_158" data-name="Path 158" d="M456.154,447.3a.571.571,0,0,0-.571.571v1.262a.571.571,0,1,0,1.143,0v-1.262A.571.571,0,0,0,456.154,447.3Z" transform="translate(-420.874 -413.222)" fill="#222" stroke="#222" stroke-width="0.1"/>
      <path id="Path_159" data-name="Path 159" d="M482.267,422.45h-1.262a.571.571,0,1,0,0,1.143h1.262a.571.571,0,1,0,0-1.143Z" transform="translate(-443.832 -390.266)" fill="#222" stroke="#222" stroke-width="0.1"/>
      <path id="Path_160" data-name="Path 160" d="M416,422.45h-1.262a.571.571,0,1,0,0,1.143H416a.571.571,0,1,0,0-1.143Z" transform="translate(-382.614 -390.266)" fill="#222" stroke="#222" stroke-width="0.1"/>
      <path id="Path_161" data-name="Path 161" d="M41.988,35.539a.571.571,0,0,0,.571-.571V33.705a.571.571,0,0,0-1.143,0v1.262A.571.571,0,0,0,41.988,35.539Z" transform="translate(-38.262 -30.61)" fill="#222" stroke="#222" stroke-width="0.1"/>
      <path id="Path_162" data-name="Path 162" d="M42.56,101.234V99.971a.571.571,0,0,0-1.143,0v1.262a.571.571,0,0,0,1.143,0Z" transform="translate(-38.262 -91.827)" fill="#222" stroke="#222" stroke-width="0.1"/>
      <path id="Path_163" data-name="Path 163" d="M66.838,75.693H68.1a.571.571,0,0,0,0-1.143H66.838a.571.571,0,0,0,0,1.143Z" transform="translate(-61.218 -68.87)" fill="#222" stroke="#222" stroke-width="0.1"/>
      <path id="Path_164" data-name="Path 164" d="M1.833,74.55H.571a.571.571,0,0,0,0,1.143H1.833a.571.571,0,0,0,0-1.143Z" transform="translate(0 -68.87)" fill="#222" stroke="#222" stroke-width="0.1"/>
    </g>
  </g>
</svg>