<svg xmlns="http://www.w3.org/2000/svg" xmlns:xlink="http://www.w3.org/1999/xlink" width="48" height="48" viewBox="0 0 48 48">
  <defs>
    <clipPath id="clip-path">
      <rect id="Rectangle_1144" data-name="Rectangle 1144" width="48" height="48" transform="translate(1308 411)" fill="#fff"/>
    </clipPath>
  </defs>
  <g id="Mask_Group_5" data-name="Mask Group 5" transform="translate(-1308 -411)" clip-path="url(#clip-path)">
    <g id="gps" transform="translate(1308.734 357.172)">
      <g id="Group_346" data-name="Group 346" transform="translate(10.847 80.094)">
        <g id="Group_345" data-name="Group 345">
          <path id="Path_170" data-name="Path 170" d="M125.766,294.716a2.759,2.759,0,0,0-2.491-2.331l-.934-.078a2.754,2.754,0,0,0-.464,5.488l.934.079A2.758,2.758,0,0,0,125.766,294.716Zm-2.839,1.794-.934-.079a1.385,1.385,0,0,1,.234-2.761l.934.079a1.385,1.385,0,1,1-.234,2.761Z" transform="translate(-119.353 -292.297)" fill="#222"/>
        </g>
      </g>
      <g id="Group_348" data-name="Group 348" transform="translate(0 58.88)">
        <g id="Group_347" data-name="Group 347" transform="translate(0 0)">
          <path id="Path_171" data-name="Path 171" d="M44.147,74.819a.684.684,0,0,0-.657,1.2c1.079.59,1.673,1.209,1.673,1.74,0,.71-1.156,1.825-4.383,2.844a17.94,17.94,0,0,0-1.6-12.071C32.089,54.874,12.217,55.963,6.589,70.2a.678.678,0,0,0-.024.075A17.936,17.936,0,0,0,5.752,80.6c-3.227-1.02-4.383-2.136-4.383-2.845,0-.571.674-1.232,1.9-1.86a.684.684,0,0,0-.624-1.218C.89,75.581,0,76.616,0,77.76c0,1.937,2.553,3.383,6.163,4.4a17.927,17.927,0,0,0,34.205,0c3.612-1.015,6.164-2.46,6.164-4.4C46.533,76.675,45.73,75.686,44.147,74.819ZM25.423,93.2c1.018-3,2.327-4.7,3.731-4.836,1.3-.123,2.518,1.12,3.216,2.241A16.455,16.455,0,0,1,25.423,93.2ZM39.27,81.034A60,60,0,0,1,27.243,82.6c1.078-4.606-.278-7.221,1.175-8.986a4.084,4.084,0,0,0,.942-2.42.684.684,0,1,0-1.367-.063c-.094,2.042-1.825,1.4-1.666,5.935a19.76,19.76,0,0,1-.49,5.533l-4.834,0a56.23,56.23,0,0,0-1.908-5.31.684.684,0,0,0-1.259.536c.583,1.369,1.163,2.968,1.733,4.773h-.605a.689.689,0,1,0,0,1.369h1.025c.313,1.057.441,1.55.466,1.618,1.029,2.851,4.687,3.1,6.388-1.614a61.351,61.351,0,0,0,11.941-1.4,16.634,16.634,0,0,1-5.3,7.242c-1-1.574-2.58-2.978-4.458-2.8-2.126.2-3.835,2.328-5.082,6.324A16.578,16.578,0,0,1,7.75,82.56q.718.165,1.471.312a.683.683,0,1,0,.258-1.342q-1.172-.229-2.216-.5a16.566,16.566,0,0,1,.4-9.773c2.688.369,5.436-2.479,9.027,4.151a.684.684,0,1,0,1.2-.652c-3.82-7.053-7.486-4.844-9.691-4.833a16.613,16.613,0,0,1,12.1-9.431c-2.694,1.747-4.273,4.021-4.273,5.581a1.46,1.46,0,0,0,1.528,1.557c1.02,0,2.219-.9,4.681-.9A6.156,6.156,0,0,1,27.3,69a.684.684,0,0,0,1.112-.8c-1.721-2.4-5.547-3.8-10.291-2.067-.594.217-.7.087-.707.111-.382-.65,1.5-4.076,6.152-5.9.078-.03.168-.068.265-.11a16.462,16.462,0,0,1,9.1,3.115,13.362,13.362,0,0,0-.62,4.8.684.684,0,1,0,1.367-.069,12.1,12.1,0,0,1,.408-3.818,16.528,16.528,0,0,1,5.674,11.139,3.6,3.6,0,0,1-1.023.154c-2.011,0-3.838-1.932-4.656-4.923a.684.684,0,0,0-1.32.361c.985,3.6,3.331,5.93,5.976,5.93a4.861,4.861,0,0,0,1.08-.125A16.517,16.517,0,0,1,39.27,81.034Zm-13.9,2.932c-1.188,2.765-2.994,2.876-3.625,1.174q-.167-.6-.335-1.176Z" transform="translate(0 -58.88)" fill="#222"/>
        </g>
      </g>
    </g>
  </g>
</svg>