<svg xmlns="http://www.w3.org/2000/svg" xmlns:xlink="http://www.w3.org/1999/xlink" width="48" height="48" viewBox="0 0 48 48">
  <defs>
    <clipPath id="clip-path">
      <rect id="Rectangle_1143" data-name="Rectangle 1143" width="48" height="48" transform="translate(1308 411)" fill="#fff"/>
    </clipPath>
  </defs>
  <g id="Poster" transform="translate(-1308 -411)" clip-path="url(#clip-path)">
    <g id="poster-2" data-name="poster" transform="translate(1258.801 418.351)">
      <path id="Path_204" data-name="Path 204" d="M60.418,0V32.934h19l6.148-6.148V5.833H84.6V26.1H79.216c-7.071,0-11.563-1.919-14.086-3.528a13.053,13.053,0,0,1-3.745-3.415V.967H84.6V2.932h.967V0Zm23.5,27.069L79.7,31.284V27.069ZM64.55,23.351a21.756,21.756,0,0,0,5.768,2.562,31.9,31.9,0,0,0,8.414,1.153v4.9H61.385V20.708A15.652,15.652,0,0,0,64.55,23.351Z" transform="translate(0)" fill="#222" stroke="#222" stroke-width="0.2"/>
      <path id="Path_205" data-name="Path 205" d="M435.581,60.5h.967v.967h-.967Z" transform="translate(-350.984 -56.601)"/>
      <path id="Path_211" data-name="Path 211" d="M90,391h2.9v.967H90Z" transform="translate(-27.674 -365.799)"/>
      <path id="Path_212" data-name="Path 212" d="M90,421h4.834v.967H90Z" transform="translate(-27.674 -393.862)"/>
      <path id="Path_213" data-name="Path 213" d="M180,450.5h3.867v.967H180Z" transform="translate(-111.875 -421.465)"/>
      <path id="Path_214" data-name="Path 214" d="M255,450.5h4.834v.967H255Z" transform="translate(-182.04 -421.465)"/>
      <g id="constellation" transform="translate(63.529 2.192)">
        <path id="Path_135" data-name="Path 135" d="M45.862,44.732l-.267-.516.252-.524a.438.438,0,0,0-.037-.444.393.393,0,0,0-.394-.161l-.549.108-.4-.415a.386.386,0,0,0-.412-.1.415.415,0,0,0-.267.345l-.072.583-.5.268a.429.429,0,0,0-.049.714l-3.132,1.374a.43.43,0,0,0-.061-.133.391.391,0,0,0-.394-.161l-.549.108-.4-.415a.386.386,0,0,0-.412-.1.415.415,0,0,0-.267.345l-.072.583-.5.268a.432.432,0,0,0,.011.756l.5.252.089.58a.432.432,0,0,0,.048.138l-.579,3.048-.053-.056a.385.385,0,0,0-.412-.1.415.415,0,0,0-.267.345l-.072.583-.041.022-6.733.394,0-.01a.438.438,0,0,0-.037-.444.392.392,0,0,0-.394-.161l-.549.108-.4-.415a.386.386,0,0,0-.412-.1.415.415,0,0,0-.267.345l-.072.583-.5.268a.432.432,0,0,0,.011.756l.5.252.089.58a.413.413,0,0,0,.278.336.383.383,0,0,0,.408-.114l.156-.173L30.8,58.979l-.15.081a.432.432,0,0,0,.011.756l.5.252.089.58a.413.413,0,0,0,.278.336.383.383,0,0,0,.408-.114l.383-.427.552.091a.389.389,0,0,0,.389-.174.437.437,0,0,0,.024-.444l-.267-.516.128-.266c.009,0,.019-.007.027-.012l4.561-2.8a.327.327,0,0,0,.152-.279V53.667l.507.083a.388.388,0,0,0,.389-.174.437.437,0,0,0,.024-.444l-.267-.516.252-.524a.438.438,0,0,0-.037-.444.392.392,0,0,0-.394-.161l-.326.064.618-3.254a.377.377,0,0,0,.033-.024l.383-.427.552.091a.389.389,0,0,0,.389-.174.437.437,0,0,0,.024-.444l-.267-.516.009-.018,3.987-1.749.066.432a.413.413,0,0,0,.278.336.383.383,0,0,0,.408-.114l.383-.427.552.091a.388.388,0,0,0,.389-.174A.436.436,0,0,0,45.862,44.732Zm-17.449,8.9-.046-.3a.321.321,0,0,0-.171-.24l-.26-.13.256-.138a.323.323,0,0,0,.164-.246l.037-.3.2.214a.3.3,0,0,0,.273.089l.283-.056-.13.27a.338.338,0,0,0,0,.3l.138.266-.284-.047a.294.294,0,0,0-.27.1Zm3.842,6.144a.294.294,0,0,0-.27.1l-.2.22-.046-.3a.321.321,0,0,0-.171-.24l-.26-.13.256-.138a.323.323,0,0,0,.164-.246l.037-.3.2.214a.3.3,0,0,0,.273.089l.283-.056-.13.27a.338.338,0,0,0,0,.3l.138.266Zm.921-1.408a.387.387,0,0,0-.337-.1l-.549.108-.4-.415a.386.386,0,0,0-.412-.1.415.415,0,0,0-.267.345l-.018.143-1.889-4.31.189.031a.387.387,0,0,0,.389-.174.437.437,0,0,0,.024-.444l-.193-.374,6.242-.365a.414.414,0,0,0,.22.316l.5.252.089.58a.413.413,0,0,0,.278.336.388.388,0,0,0,.119.019.375.375,0,0,0,.1-.023v1.658Zm4.748-5.6.138.266-.284-.047a.292.292,0,0,0-.221.054.306.306,0,0,0-.258.19l-.035-.226a.321.321,0,0,0-.171-.24l-.226-.113a.3.3,0,0,0,.236-.166.323.323,0,0,0,.149-.235l.037-.3.2.214a.3.3,0,0,0,.273.089l.283-.056-.13.27A.338.338,0,0,0,37.924,52.775ZM39,47.18a.293.293,0,0,0-.27.1l-.2.22-.046-.3a.321.321,0,0,0-.171-.24l-.26-.13.256-.138a.323.323,0,0,0,.164-.246l.037-.3.2.214a.3.3,0,0,0,.273.089l.25-.049a.331.331,0,0,0-.041.148l-.056.116a.338.338,0,0,0,0,.3l.138.266ZM44.833,44.6a.293.293,0,0,0-.27.1l-.2.22-.046-.3a.321.321,0,0,0-.171-.24l-.26-.13.256-.138a.323.323,0,0,0,.164-.246l.037-.3.2.214a.3.3,0,0,0,.273.089l.283-.056-.13.27a.338.338,0,0,0,0,.3l.138.266Z" transform="translate(-27.054 -41.745)" fill="#222" stroke="#222" stroke-width="0.2"/>
      </g>
    </g>
  </g>
</svg>
