<svg xmlns="http://www.w3.org/2000/svg" xmlns:xlink="http://www.w3.org/1999/xlink" width="32" height="32" viewBox="0 0 32 32">
  <defs>
    <clipPath id="clip-path">
      <rect id="Rectangle_1301" data-name="Rectangle 1301" width="32" height="32" transform="translate(1463 993)" fill="#fff" stroke="#707070" stroke-width="1"/>
    </clipPath>
  </defs>
  <g id="Size-S" transform="translate(-1463 -993)" clip-path="url(#clip-path)">
    <path id="Path_282" data-name="Path 282" d="M-.037.3A7.515,7.515,0,0,1-3.662-.512,7.694,7.694,0,0,1-6.212-2.75l1.55-1.3a6.8,6.8,0,0,0,2.05,1.863,5.286,5.286,0,0,0,2.65.638A4.109,4.109,0,0,0,2.9-2.45a3.09,3.09,0,0,0,.988-2.4,2.456,2.456,0,0,0-.75-1.925A5.646,5.646,0,0,0,.663-7.85L-.762-8.175A8.277,8.277,0,0,1-4.425-9.837a3.961,3.961,0,0,1-1.263-3.137,4.746,4.746,0,0,1,.425-2.05,4.116,4.116,0,0,1,1.188-1.5,5.362,5.362,0,0,1,1.825-.913A8.261,8.261,0,0,1,.088-17.75a7.339,7.339,0,0,1,3.388.725A6.521,6.521,0,0,1,5.862-14.9L4.288-13.75a5.429,5.429,0,0,0-1.75-1.575A5.153,5.153,0,0,0-.012-15.9a4.347,4.347,0,0,0-2.638.712,2.488,2.488,0,0,0-.962,2.137A2.253,2.253,0,0,0-2.8-11.163,6.286,6.286,0,0,0-.337-10.15l1.425.325a7.4,7.4,0,0,1,3.725,1.75A4.275,4.275,0,0,1,5.962-4.95,5.53,5.53,0,0,1,5.55-2.775a4.46,4.46,0,0,1-1.187,1.65A5.519,5.519,0,0,1,2.475-.075,7.842,7.842,0,0,1-.037.3Z" transform="translate(1479 1017)" fill="#222"/>
  </g>
</svg>