<svg xmlns="http://www.w3.org/2000/svg" xmlns:xlink="http://www.w3.org/1999/xlink" width="24" height="24" viewBox="0 0 24 24">
  <defs>
    <clipPath id="clip-path">
      <rect id="Rectangle_1169" data-name="Rectangle 1169" width="24" height="24" transform="translate(1507 423)" fill="#fff" stroke="#707070" stroke-width="1"/>
    </clipPath>
  </defs>
  <g id="moment-icon" transform="translate(-1507 -423)" clip-path="url(#clip-path)">
    <g id="text" transform="translate(1509 424.826)">
      <path id="Path_241" data-name="Path 241" d="M.6,4.54a.6.6,0,0,0,.6-.6V1.192H3.944A.6.6,0,0,0,3.944,0H.6A.6.6,0,0,0,0,.6V3.944A.6.6,0,0,0,.6,4.54Z" fill="#222"/>
      <path id="Path_242" data-name="Path 242" d="M401.709,0h-3.348a.6.6,0,1,0,0,1.192h2.752V3.944a.6.6,0,0,0,1.192,0V.6A.6.6,0,0,0,401.709,0Z" transform="translate(-381.957)" fill="#222"/>
      <path id="Path_243" data-name="Path 243" d="M401.709,397.765a.6.6,0,0,0-.6.6v2.752h-2.752a.6.6,0,0,0,0,1.192h3.348a.6.6,0,0,0,.6-.6v-3.348A.6.6,0,0,0,401.709,397.765Z" transform="translate(-381.957 -381.957)" fill="#222"/>
      <path id="Path_244" data-name="Path 244" d="M3.944,401.113H1.192v-2.752a.6.6,0,1,0-1.192,0v3.348a.6.6,0,0,0,.6.6H3.944a.6.6,0,0,0,0-1.192Z" transform="translate(0 -381.957)" fill="#222"/>
      <path id="Path_245" data-name="Path 245" d="M105.348,92.243V88.478a.338.338,0,0,0-.339-.338H92.679a.338.338,0,0,0-.339.338v3.765a.338.338,0,0,0,.339.339h1.8a.338.338,0,0,0,.338-.339v-1.29a.339.339,0,0,1,.339-.339h2.115a.338.338,0,0,1,.339.339v9.305a.338.338,0,0,1-.339.339h-.925a.338.338,0,0,0-.339.339v1.8a.338.338,0,0,0,.339.338h5a.338.338,0,0,0,.339-.338v-1.8a.338.338,0,0,0-.339-.339h-.925a.338.338,0,0,1-.339-.339V90.953a.338.338,0,0,1,.339-.339h2.115a.339.339,0,0,1,.339.339v1.29a.338.338,0,0,0,.338.339h1.8A.338.338,0,0,0,105.348,92.243Z" transform="translate(-88.67 -84.637)" fill="#222"/>
    </g>
  </g>
</svg>
