<svg xmlns="http://www.w3.org/2000/svg" xmlns:xlink="http://www.w3.org/1999/xlink" width="700pt" height="700pt" viewBox="0 0 700 700" version="1.1"><defs><symbol id="a" overflow="visible"><path d="M5.188-5.25c.625.125 1.113.398 1.468.813.352.406.535.917.547 1.53.02.938-.289 1.673-.922 2.204-.636.523-1.547.789-2.734.812a6.864 6.864 0 0 1-1.25-.093A7.699 7.699 0 0 1 1-.297l-.031-1.25c.351.2.742.344 1.172.438.437.093.882.136 1.343.125.813-.008 1.426-.176 1.844-.5.414-.332.613-.801.594-1.407-.012-.562-.219-.992-.625-1.296-.399-.313-.945-.461-1.64-.454l-1.11.032-.016-1.063 1.156-.031c.633-.008 1.118-.145 1.454-.406.332-.258.492-.63.484-1.11-.012-.488-.195-.86-.547-1.11-.355-.25-.855-.366-1.5-.358a6.927 6.927 0 0 0-1.14.14c-.399.086-.84.211-1.329.375l-.015-1.14c.488-.145.941-.254 1.36-.329.425-.07.827-.113 1.202-.125.977-.02 1.758.188 2.344.625.582.43.883 1.024.906 1.782.008.523-.136.968-.437 1.343-.293.368-.719.621-1.282.766zm0 0" stroke="none"></path></symbol><symbol id="b" overflow="visible"><path d="M4.203-5.375c-.586.023-1.039.234-1.36.64-.323.4-.48.938-.468 1.626.008.687.188 1.23.531 1.625.344.398.805.586 1.39.562.571-.008 1.02-.219 1.345-.625.332-.406.492-.953.484-1.64-.012-.688-.195-1.223-.547-1.61-.344-.394-.805-.586-1.375-.578zm2.484-4.078l.032 1.172a5.64 5.64 0 0 0-1-.328 4.285 4.285 0 0 0-.985-.094c-.843.012-1.484.308-1.921.89-.438.586-.684 1.461-.735 2.625.258-.375.57-.664.938-.875a2.68 2.68 0 0 1 1.25-.328c.957-.007 1.718.274 2.28.844.563.563.852 1.34.876 2.328.02.98-.258 1.778-.828 2.39-.563.606-1.324.911-2.282.923C3.208.125 2.353-.273 1.75-1.11 1.156-1.941.844-3.16.812-4.766c-.03-1.507.301-2.718 1-3.625.708-.906 1.66-1.367 2.86-1.39.32-.008.644.015.969.078.332.055.68.137 1.046.25zm0 0" stroke="none"></path></symbol><symbol id="c" overflow="visible"><path d="M4.328-8.594c-.668-.008-1.172.309-1.516.953-.343.649-.53 1.625-.562 2.938-.023 1.305.125 2.289.438 2.953.32.656.816.992 1.484 1 .664.023 1.172-.29 1.516-.938.351-.656.539-1.632.562-2.937.031-1.313-.117-2.297-.438-2.953-.324-.656-.82-.992-1.484-1.016zm.016-1.015c1.062.023 1.863.464 2.406 1.328.55.855.813 2.086.781 3.687C7.5-2.988 7.191-1.77 6.61-.937 6.035-.114 5.22.284 4.156.266 3.082.242 2.27-.191 1.72-1.047 1.176-1.898.922-3.129.953-4.734c.031-1.602.332-2.82.906-3.657.582-.832 1.41-1.238 2.485-1.218zm0 0" stroke="none"></path></symbol><symbol id="d" overflow="visible"><path d="M1.281-1.469l2.016-.562-1.953-7L-.72-8l-.312-1.125 2.062-1.047 1.235-.344L4.53-2.375l2.032-.563.28 1.032-5.28 1.468zm0 0" stroke="none"></path></symbol><symbol id="e" overflow="visible"><path d="M-1-9.563l4.906-1.265.266 1.047-3.75.969L1-6.563c.164-.114.332-.204.5-.266.176-.07.36-.133.547-.188 1.02-.257 1.906-.187 2.656.22.75.405 1.242 1.089 1.484 2.046.258 1 .149 1.86-.328 2.578-.48.711-1.28 1.203-2.406 1.485-.387.105-.789.171-1.203.203-.418.03-.86.039-1.328.015l-.328-1.25c.426.106.847.157 1.265.157.426-.008.86-.067 1.297-.172.719-.188 1.235-.52 1.547-1 .313-.477.383-1.04.219-1.688-.156-.633-.492-1.086-1-1.36-.512-.28-1.125-.327-1.844-.14-.336.086-.656.211-.969.375-.304.156-.609.36-.921.61zm0 0" stroke="none"></path></symbol><symbol id="f" overflow="visible"><path d="M1.938-7.125c.593-.195 1.144-.203 1.656-.016.52.18.937.532 1.25 1.063.476.805.566 1.59.265 2.36-.293.773-.949 1.46-1.968 2.062-.344.21-.72.386-1.125.531-.407.148-.84.273-1.297.375l-.64-1.078c.405 0 .816-.063 1.234-.188a6.072 6.072 0 0 0 1.234-.546c.695-.415 1.144-.864 1.344-1.344.207-.489.16-.992-.141-1.516-.293-.488-.695-.766-1.203-.828-.5-.07-1.055.07-1.656.422l-.954.562-.53-.921 1-.594c.55-.32.905-.676 1.062-1.063.156-.383.113-.785-.125-1.203C1.094-9.46.75-9.69.312-9.734c-.425-.051-.921.09-1.484.421-.3.18-.601.403-.906.672-.3.274-.625.602-.969.985l-.578-.985c.355-.363.7-.68 1.031-.953.336-.281.664-.515.985-.703.836-.5 1.609-.703 2.328-.61.719.087 1.273.454 1.672 1.11.257.45.351.906.28 1.375-.073.469-.32.902-.733 1.297zm0 0" stroke="none"></path></symbol><symbol id="g" overflow="visible"><path d="M-.64-9.594c-.583.336-.86.867-.829 1.594.032.73.371 1.664 1.016 2.797C.18-4.066.805-3.29 1.422-2.875c.613.406 1.21.445 1.797.11.57-.32.844-.852.812-1.594-.031-.739-.367-1.676-1-2.813-.648-1.133-1.277-1.898-1.89-2.297-.618-.406-1.207-.445-1.782-.125zm-.5-.89c.917-.52 1.827-.551 2.734-.094.914.46 1.77 1.387 2.562 2.781.782 1.399 1.13 2.602 1.047 3.61-.074 1.011-.57 1.777-1.484 2.296-.938.532-1.86.57-2.766.11-.906-.457-1.75-1.383-2.531-2.782-.79-1.394-1.149-2.597-1.078-3.609.074-1.008.578-1.781 1.515-2.312zm0 0" stroke="none"></path></symbol><symbol id="h" overflow="visible"><path d="M-2.563-9.406l1.36 5.89 2.281-2.328zm-1.046-.531l1.14-1.172L1.97-6.766l.953-.968.765.734-.953.969 1.61 1.578-.89.922-1.61-1.578-3 3.078-.875-.86zm0 0" stroke="none"></path></symbol><symbol id="i" overflow="visible"><path d="M-5.672-7.781l3.61-3.547.765.781-2.766 2.719 1.625 1.656c.094-.176.2-.344.313-.5.117-.156.242-.3.375-.437C-.988-7.848-.187-8.227.656-8.25c.844-.02 1.614.324 2.313 1.031.719.742 1.047 1.543.984 2.407-.055.855-.492 1.683-1.312 2.484a7.75 7.75 0 0 1-.954.781c-.343.242-.718.469-1.125.688l-.906-.922c.414-.125.801-.29 1.156-.5a5.79 5.79 0 0 0 1.032-.797c.531-.52.812-1.067.843-1.64.04-.571-.171-1.098-.64-1.579-.461-.469-.98-.691-1.563-.672-.57.024-1.125.293-1.656.813a5.067 5.067 0 0 0-.64.797 4.27 4.27 0 0 0-.5 1zm0 0" stroke="none"></path></symbol><symbol id="j" overflow="visible"><path d="M-2.484-6.344c-.282.5-.329.996-.141 1.485.18.48.563.89 1.156 1.234.606.336 1.164.453 1.672.36.508-.094.906-.391 1.188-.891.28-.5.328-.992.14-1.485-.18-.5-.57-.914-1.172-1.25-.593-.343-1.144-.46-1.656-.359-.508.105-.906.406-1.187.906zm-2.25-4.218l1.015.578c-.289.21-.55.437-.781.687-.238.25-.438.516-.594.797-.414.742-.484 1.45-.203 2.125.281.668.914 1.313 1.89 1.938a2.7 2.7 0 0 1-.28-1.235 2.7 2.7 0 0 1 .359-1.25c.469-.832 1.094-1.344 1.875-1.531.773-.195 1.586-.05 2.453.437.852.48 1.395 1.118 1.625 1.907.238.793.117 1.609-.36 2.453-.542.96-1.324 1.484-2.343 1.578-1.02.086-2.227-.266-3.625-1.047-1.313-.738-2.176-1.64-2.594-2.703-.426-1.063-.344-2.113.25-3.156.156-.282.344-.547.563-.797.21-.258.46-.52.75-.781zm0 0" stroke="none"></path></symbol><symbol id="k" overflow="visible"><path d="M-5.36-7.984c-.331.574-.3 1.168.094 1.78.387.618 1.141 1.259 2.266 1.923 1.125.668 2.059 1.027 2.797 1.078C.523-3.16 1.055-3.426 1.39-4c.343-.57.316-1.164-.079-1.781C.914-6.406.157-7.051-.967-7.72-2.095-8.383-3.02-8.739-3.75-8.78c-.727-.04-1.266.226-1.61.797zm-.874-.532c.543-.914 1.324-1.398 2.343-1.453 1.012-.05 2.204.328 3.579 1.14 1.382.825 2.296 1.696 2.734 2.61.437.907.383 1.82-.156 2.735C1.723-2.554.946-2.063-.063-2c-1.007.055-2.207-.332-3.593-1.156-1.375-.813-2.281-1.676-2.719-2.594-.445-.914-.398-1.836.14-2.766zm0 0" stroke="none"></path></symbol><symbol id="l" overflow="visible"><path d="M-8.953-3.406l1.515-5.922.532.14L.922-3.625.594-2.312l-7.375-5.25-1.125 4.421zm0 0" stroke="none"></path></symbol><symbol id="m" overflow="visible"><path d="M-8.797-3.906l1.36-4.875 1.046.281-1.046 3.734 2.234.625c0-.187.012-.375.031-.562.024-.195.059-.383.11-.563.28-1.03.789-1.765 1.515-2.203.73-.437 1.57-.523 2.516-.265 1 .28 1.687.808 2.062 1.578.375.761.407 1.699.094 2.812a7.504 7.504 0 0 1-.422 1.156c-.18.387-.39.774-.64 1.157l-1.25-.344c.304-.313.558-.648.765-1.016.2-.375.36-.78.484-1.218.196-.707.172-1.317-.078-1.829-.257-.507-.71-.859-1.359-1.046-.633-.164-1.195-.098-1.688.203-.488.304-.832.808-1.03 1.515-.095.336-.145.68-.157 1.032-.008.343.012.714.063 1.109zm0 0" stroke="none"></path></symbol><symbol id="n" overflow="visible"><path d="M-.219-1.438l-1.172.016c.149-.32.258-.648.329-.984.074-.332.105-.656.093-.969-.008-.852-.3-1.5-.875-1.938-.57-.437-1.441-.675-2.61-.718.368.242.65.547.845.922.199.367.304.777.312 1.234.012.96-.265 1.719-.828 2.281-.563.563-1.344.856-2.344.875-.976.012-1.765-.265-2.36-.828-.6-.57-.91-1.336-.921-2.297-.02-1.101.387-1.953 1.219-2.547.836-.593 2.054-.898 3.656-.921 1.5-.02 2.71.32 3.625 1.015.906.7 1.363 1.649 1.375 2.844.008.324-.016.652-.078.984-.05.336-.14.68-.266 1.031zm-4.078-2.5c-.008-.57-.21-1.019-.61-1.343-.405-.332-.952-.492-1.64-.485-.687.012-1.223.188-1.61.532-.394.343-.585.804-.577 1.375.011.586.218 1.043.625 1.375.398.324.937.48 1.625.468.687-.007 1.23-.187 1.625-.53.386-.345.574-.806.562-1.392zm0 0" stroke="none"></path></symbol><symbol id="o" overflow="visible"><path d="M-8.61-4.297c-.007.668.31 1.172.954 1.516.648.344 1.625.527 2.937.547 1.305.023 2.29-.13 2.953-.454.657-.32.993-.816 1-1.484.012-.664-.304-1.172-.953-1.516-.656-.343-1.633-.523-2.937-.546-1.313-.02-2.297.132-2.953.453-.657.324-.989.82-1 1.484zm-1.015-.016c.023-1.062.46-1.863 1.313-2.406.855-.55 2.085-.816 3.687-.797 1.605.032 2.824.336 3.656.907C-.133-6.035.27-5.22.25-4.156.238-3.082-.191-2.27-1.047-1.72c-.851.555-2.082.813-3.687.782-1.602-.02-2.82-.317-3.657-.891-.832-.582-1.242-1.41-1.234-2.484zm0 0" stroke="none"></path></symbol><symbol id="p" overflow="visible"><path d="M-1.484-1.266l-.579-2.015-6.984 2.031L-7.984.828l-1.125.328-1.063-2.078-.36-1.219 8.11-2.359-.594-2.031 1.032-.297 1.53 5.266zm0 0" stroke="none"></path></symbol><symbol id="q" overflow="visible"><path d="M-9.5-1.781c.168.648.617 1.047 1.344 1.203.719.156 1.71.062 2.969-.281 1.273-.332 2.183-.743 2.734-1.235.543-.5.73-1.07.562-1.719-.175-.644-.625-1.039-1.343-1.187-.727-.156-1.727-.066-3 .266-1.258.343-2.16.761-2.704 1.25-.55.492-.738 1.058-.562 1.703zm-.984.265c-.282-1.03-.082-1.93.593-2.703.668-.77 1.778-1.363 3.329-1.781 1.562-.414 2.828-.457 3.796-.125.97.336 1.594 1.016 1.875 2.047.282 1.043.086 1.95-.593 2.719-.676.761-1.797 1.351-3.36 1.765-1.55.414-2.804.457-3.765.125-.97-.324-1.594-1.004-1.875-2.047zm0 0" stroke="none"></path></symbol><symbol id="r" overflow="visible"><path d="M-9.563.906l-1.218-4.922 1.047-.25.921 3.766 2.25-.563a2.616 2.616 0 0 1-.25-.515A6.601 6.601 0 0 1-7-2.11c-.25-1.032-.164-1.914.25-2.657.418-.75 1.11-1.238 2.078-1.468 1-.25 1.856-.13 2.563.359.699.492 1.183 1.293 1.453 2.406.094.387.164.793.203 1.219.031.418.031.86 0 1.328l-1.25.313c.105-.426.156-.848.156-1.266 0-.426-.05-.86-.156-1.297-.176-.719-.504-1.238-.984-1.562-.477-.32-1.04-.399-1.688-.235-.645.157-1.102.492-1.375 1-.27.5-.316 1.11-.14 1.828.085.336.202.657.359.97.148.312.351.624.61.937zm0 0" stroke="none"></path></symbol><symbol id="s" overflow="visible"><path d="M-1.766-.813l-1.093-1.796-6.172 3.78 1.578 1.704-1 .625-1.578-1.703-.656-1.094 7.171-4.39-1.093-1.782.921-.562 2.844 4.656zm0 0" stroke="none"></path></symbol><symbol id="t" overflow="visible"><path d="M-2.188-1.61l-2.25-3.906.938-.546L-.484-.829l-.938.547c-.676-.164-1.594-.399-2.75-.703-1.164-.313-1.91-.5-2.234-.563-.614-.125-1.098-.176-1.453-.156-.352.023-.664.11-.938.266-.437.261-.703.625-.797 1.093-.101.457-.015.93.266 1.422.21.352.492.688.844 1a8.2 8.2 0 0 0 1.25.938l-1.125.656a10.27 10.27 0 0 1-1.125-1.047 5.443 5.443 0 0 1-.766-.984C-10.738.797-10.914 0-10.781-.75c.125-.758.543-1.348 1.25-1.766.344-.195.703-.32 1.078-.375.375-.05.871-.03 1.484.063.157.043.637.164 1.438.36.793.198 1.906.484 3.343.859zm0 0" stroke="none"></path></symbol><symbol id="u" overflow="visible"><path d="M-9.594.547c.313.582.836.863 1.563.844.73-.024 1.672-.352 2.828-.985 1.137-.633 1.914-1.254 2.328-1.86.418-.6.469-1.194.156-1.78-.32-.582-.851-.864-1.594-.844-.738.023-1.675.351-2.812.984-1.156.637-1.938 1.258-2.344 1.86-.406.605-.445 1.199-.125 1.78zm-.89.484c-.52-.93-.547-1.836-.079-2.734.47-.906 1.407-1.742 2.813-2.516C-6.344-5-5.133-5.344-4.125-5.25c1.012.086 1.777.59 2.297 1.516.512.937.531 1.859.062 2.765-.468.899-1.406 1.735-2.812 2.516-1.406.77-2.613 1.11-3.625 1.016-1.008-.086-1.77-.594-2.281-1.532zm0 0" stroke="none"></path></symbol><symbol id="v" overflow="visible"><path d="M-1.922-.344l-1.516-1.453-5.03 5.234 1.968 1.25-.813.844-1.968-1.25-.922-.89 5.844-6.079-1.516-1.453.75-.78 3.953 3.796zm0 0" stroke="none"></path></symbol><symbol id="w" overflow="visible"><path d="M-7.39-.11c-.333-.538-.473-1.077-.423-1.609.043-.539.282-1.031.72-1.468.655-.665 1.398-.946 2.218-.844.824.093 1.656.558 2.5 1.39.281.293.547.618.797.97.242.343.465.734.672 1.171l-.875.875a4.218 4.218 0 0 0-.5-1.156 5.514 5.514 0 0 0-.828-1.047c-.57-.582-1.118-.91-1.641-.984-.531-.07-1.008.105-1.438.53-.394.4-.566.852-.515 1.36.055.5.324.992.812 1.485l.797.78-.75.75-.828-.812C-7.117.832-7.55.578-7.969.516c-.414-.063-.789.078-1.125.421-.344.344-.484.727-.422 1.157.063.426.32.867.766 1.328.25.25.547.488.89.719.344.238.743.472 1.188.703l-.797.812c-.437-.25-.832-.508-1.187-.765a7.64 7.64 0 0 1-.938-.782c-.687-.687-1.07-1.39-1.156-2.109-.094-.719.125-1.344.656-1.875.375-.375.797-.582 1.266-.625.469-.04.95.09 1.437.39zm0 0" stroke="none"></path></symbol><symbol id="x" overflow="visible"><path d="M-7.828 5.563l-3.5-3.641.781-.75 2.688 2.797 1.671-1.61a3.55 3.55 0 0 1-.484-.312 3.279 3.279 0 0 1-.422-.375C-7.832.898-8.204.094-8.204-.75c-.007-.852.34-1.625 1.048-2.313.742-.707 1.539-1.023 2.39-.953.856.063 1.684.516 2.485 1.36.273.293.527.61.765.953.23.344.454.726.672 1.14l-.937.891a6.05 6.05 0 0 0-.485-1.187 5.654 5.654 0 0 0-.78-1.047c-.509-.532-1.052-.813-1.626-.844-.57-.04-1.098.168-1.578.625-.477.46-.707.977-.688 1.547.012.574.274 1.125.782 1.656.242.25.508.469.797.656.28.196.605.375.968.532zm0 0" stroke="none"></path></symbol><symbol id="y" overflow="visible"><path d="M-1.938.156L-3.766-.859-7.28 5.516l2.203.703-.563 1.031-2.203-.719-1.125-.61 4.078-7.39-1.859-1.015.516-.938 4.812 2.64zm0 0" stroke="none"></path></symbol><symbol id="z" overflow="visible"><path d="M-5.984 7.531L-10.36 5l.546-.922 3.344 1.938L-5.312 4a3.858 3.858 0 0 1-.547-.172 3.381 3.381 0 0 1-.516-.234c-.914-.531-1.492-1.211-1.734-2.031-.25-.813-.125-1.645.375-2.5.511-.895 1.187-1.426 2.03-1.594.837-.164 1.75.039 2.75.61.345.198.68.433 1 .702.325.262.653.563.985.907L-1.625.813a4.774 4.774 0 0 0-.797-1c-.312-.29-.66-.551-1.047-.782-.644-.363-1.25-.484-1.812-.36-.563.118-1.008.466-1.344 1.048-.332.562-.41 1.117-.234 1.672.18.55.59 1.007 1.234 1.375.305.175.621.312.953.406.324.101.684.176 1.078.219zm0 0" stroke="none"></path></symbol><symbol id="A" overflow="visible"><path d="M-8.078 5.297c.562.344 1.156.32 1.781-.063.625-.386 1.281-1.14 1.969-2.265C-3.648 1.844-3.285.91-3.234.172c.054-.727-.204-1.266-.766-1.61-.57-.343-1.172-.32-1.797.063-.633.387-1.289 1.14-1.969 2.266-.687 1.125-1.05 2.05-1.093 2.78-.051.74.21 1.282.78 1.626zm-.516.875c-.926-.555-1.414-1.34-1.469-2.36-.05-1.023.344-2.218 1.188-3.593.836-1.383 1.715-2.29 2.64-2.719.919-.426 1.84-.363 2.766.188.918.554 1.403 1.34 1.453 2.359.043 1.02-.351 2.223-1.187 3.61-.844 1.374-1.723 2.273-2.64 2.702-.915.426-1.833.364-2.75-.187zm0 0" stroke="none"></path></symbol><symbol id="B" overflow="visible"><path d="M-1.844.656l-2.031-.5-1.734 7.047 2.328.11-.297 1.14-2.313-.11-1.25-.312 2.016-8.187-2.047-.5.266-1.047 5.328 1.312zm0 0" stroke="none"></path></symbol><symbol id="C" overflow="visible"><path d="M-5.531 3.969c.562.156 1.058.082 1.484-.219.418-.293.715-.773.89-1.438.18-.667.165-1.234-.046-1.703-.219-.468-.61-.78-1.172-.937-.563-.145-1.055-.067-1.484.234-.426.29-.727.77-.907 1.438-.175.664-.156 1.234.063 1.703.219.469.61.773 1.172.922zm-3.532 3.219l.297-1.125c.274.226.559.425.86.593.304.164.61.29.922.375.812.219 1.511.11 2.093-.328.586-.43 1.063-1.2 1.438-2.312-.344.289-.723.484-1.14.578a2.69 2.69 0 0 1-1.282-.032c-.926-.25-1.578-.73-1.953-1.437-.383-.71-.445-1.543-.188-2.5.25-.95.735-1.629 1.454-2.047.71-.426 1.527-.516 2.453-.266C-3.047-1.02-2.344-.39-2 .579c.344.969.309 2.223-.11 3.766-.394 1.457-1.054 2.523-1.984 3.203-.926.676-1.968.86-3.125.547a4.787 4.787 0 0 1-.922-.36 7.03 7.03 0 0 1-.921-.546zm0 0" stroke="none"></path></symbol><symbol id="D" overflow="visible"><path d="M-4.016 8.734l-4.859-1.421.297-1.032L-4.86 7.36l.656-2.234a3.972 3.972 0 0 1-.578-.016A3.663 3.663 0 0 1-5.328 5c-1.02-.305-1.75-.824-2.188-1.563-.437-.73-.515-1.57-.234-2.515.293-.988.828-1.664 1.61-2.031.773-.364 1.71-.383 2.812-.063.387.106.773.25 1.156.438.375.187.762.406 1.156.656l-.359 1.25A5.781 5.781 0 0 0-2.406.39a5.29 5.29 0 0 0-1.188-.5c-.707-.207-1.32-.188-1.844.062-.519.25-.875.692-1.062 1.328-.188.633-.129 1.196.172 1.688.305.5.808.851 1.516 1.062.335.102.671.16 1.015.172.344.02.719.004 1.125-.047zm0 0" stroke="none"></path></symbol><symbol id="E" overflow="visible"><path d="M-1.61 1.11l-2.093.046.156 7.266 2.266-.5.031 1.172-2.281.5-1.281.015-.172-8.437-2.11.047L-7.109.14l5.484-.11zm0 0" stroke="none"></path></symbol><symbol id="F" overflow="visible"><path d="M-4.234 4.453c.617.008 1.101-.148 1.453-.469.355-.312.539-.761.547-1.343.011-.575-.157-1.028-.5-1.36-.344-.336-.82-.508-1.438-.515-.613-.012-1.098.144-1.453.468-.352.332-.535.782-.547 1.344-.008.582.156 1.035.5 1.36.344.332.824.503 1.438.515zm1.296.578c.555.145.981.407 1.282.782.293.382.437.847.437 1.39-.02.77-.3 1.367-.843 1.797-.551.426-1.301.633-2.25.625-.946-.023-1.688-.258-2.22-.703-.53-.438-.784-1.043-.765-1.813 0-.543.164-1 .484-1.375.313-.375.743-.625 1.282-.75-.614-.156-1.094-.449-1.438-.875-.343-.43-.508-.949-.5-1.562.024-.918.32-1.621.89-2.11.563-.476 1.372-.707 2.423-.687 1.054.012 1.86.266 2.422.766.554.507.82 1.222.796 2.14-.007.614-.19 1.13-.546 1.547-.352.414-.836.692-1.454.828zm.438 2.047c0-.5-.148-.89-.453-1.172-.3-.281-.735-.43-1.297-.437-.55-.012-.984.117-1.297.39-.32.27-.484.657-.484 1.157-.008.488.14.875.453 1.156.305.281.73.426 1.281.437.563.008 1-.12 1.313-.39.312-.274.476-.653.484-1.14zm0 0" stroke="none"></path></symbol><symbol id="G" overflow="visible"><path d="M-4.328 8.594c.668.008 1.172-.309 1.516-.953.343-.649.53-1.625.562-2.938.023-1.305-.125-2.289-.438-2.953-.32-.656-.816-.992-1.484-1-.664-.023-1.172.29-1.516.938-.351.656-.539 1.632-.562 2.937-.031 1.313.117 2.297.438 2.953.324.656.82.992 1.484 1.016zm-.016 1.015c-1.062-.023-1.863-.464-2.406-1.328-.55-.855-.813-2.086-.781-3.687.031-1.606.34-2.824.922-3.657.574-.824 1.39-1.222 2.453-1.203 1.074.024 1.886.457 2.437 1.313.543.851.797 2.082.766 3.687-.031 1.602-.332 2.82-.906 3.657-.582.832-1.41 1.238-2.485 1.218zm0 0" stroke="none"></path></symbol><symbol id="H" overflow="visible"><path d="M-1.266 1.484l-2 .594 2.047 6.985L.828 7.984l.328 1.125-2.047 1.079-1.234.359-2.375-8.11-2.031.579-.297-1.032 5.266-1.53zm0 0" stroke="none"></path></symbol><symbol id="I" overflow="visible"><path d="M-1.344.578l.313 1.125a5.993 5.993 0 0 0-1.047-.094 3.866 3.866 0 0 0-.969.141c-.82.219-1.375.656-1.656 1.313-.29.664-.317 1.578-.078 2.734.148-.418.375-.774.687-1.063.313-.28.696-.48 1.14-.593.919-.25 1.72-.172 2.407.234.688.414 1.16 1.11 1.422 2.078.25.945.172 1.774-.234 2.484-.407.72-1.07 1.204-2 1.454-1.07.289-1.993.097-2.766-.579C-4.906 9.146-5.5 8.04-5.906 6.5c-.395-1.45-.364-2.7.093-3.75.461-1.055 1.274-1.734 2.438-2.047.305-.086.625-.137.969-.156a5.781 5.781 0 0 1 1.062.031zm-1.422 4.547c-.55.145-.937.453-1.156.922-.226.469-.254 1.035-.078 1.703.18.664.48 1.145.906 1.438.43.289.918.363 1.469.218.563-.148.96-.453 1.188-.922.218-.468.242-1.039.062-1.703-.176-.668-.477-1.148-.906-1.437-.426-.293-.922-.367-1.485-.219zm0 0" stroke="none"></path></symbol><symbol id="J" overflow="visible"><path d="M.922 9.578L-4 10.781l-.25-1.047 3.766-.921-.563-2.25a7.726 7.726 0 0 1-.516.25 2.78 2.78 0 0 1-.53.187c-1.032.258-1.915.176-2.657-.25-.75-.418-1.242-1.105-1.484-2.063-.25-1-.13-1.855.359-2.562.492-.7 1.297-1.188 2.422-1.469A7.112 7.112 0 0 1-2.25.47c.418-.031.86-.04 1.328-.016l.313 1.25a5.245 5.245 0 0 0-1.266-.156c-.426 0-.852.055-1.281.172-.719.176-1.239.5-1.563.968-.32.477-.406 1.04-.25 1.688.157.633.492 1.094 1 1.375.512.281 1.125.332 1.844.156.336-.086.656-.203.969-.36a5.31 5.31 0 0 0 .937-.609zm0 0" stroke="none"></path></symbol><symbol id="K" overflow="visible"><path d="M-1.594 2.234l-3.86 2.344-.562-.937L-.828.5l.562.938a78.374 78.374 0 0 1-.656 2.78c-.289 1.177-.457 1.927-.5 2.25-.113.614-.156 1.098-.125 1.454.024.351.11.664.266.937.273.438.648.704 1.125.797.469.094.945-.011 1.437-.312.344-.211.672-.492.985-.844.312-.344.609-.777.89-1.297l.688 1.125a9.923 9.923 0 0 1-1.031 1.156c-.336.32-.665.582-.985.782-.844.507-1.648.703-2.406.578-.758-.117-1.352-.528-1.781-1.235a3.118 3.118 0 0 1-.391-1.062c-.063-.375-.04-.875.063-1.5.023-.156.124-.637.312-1.438.188-.804.45-1.93.781-3.375zm0 0" stroke="none"></path></symbol><symbol id="L" overflow="visible"><path d="M-.86 1.766l-1.828 1.046L.938 9.125l1.765-1.531.578 1.015-1.734 1.547-1.125.64-4.219-7.343L-5.625 4.5l-.547-.953L-1.406.812zm0 0" stroke="none"></path></symbol><symbol id="M" overflow="visible"><path d="M.531 9.594c.582-.324.864-.852.844-1.578-.023-.72-.352-1.657-.984-2.813C-.234 4.066-.848 3.285-1.453 2.86c-.602-.418-1.195-.464-1.781-.14-.582.32-.864.851-.844 1.594.023.738.344 1.675.969 2.812.636 1.156 1.257 1.938 1.859 2.344.605.406 1.2.445 1.781.125zm.5.89c-.93.508-1.836.532-2.734.063-.906-.469-1.75-1.406-2.531-2.813-.77-1.406-1.11-2.617-1.016-3.625.086-1.011.59-1.773 1.516-2.28.937-.513 1.859-.532 2.765-.063.899.468 1.727 1.406 2.5 2.812.782 1.406 1.125 2.613 1.032 3.625-.086 1.008-.594 1.77-1.532 2.281zm0 0" stroke="none"></path></symbol><symbol id="N" overflow="visible"><path d="M-.953 2.563l-3.094 3.234-.781-.75L-.656.687l.781.75c.02.708.047 1.657.078 2.844.031 1.196.063 1.957.094 2.282.05.613.133 1.093.25 1.437.113.344.285.617.515.828.364.352.782.516 1.25.485.477-.032.915-.25 1.313-.657.281-.304.523-.668.734-1.094.207-.417.383-.906.532-1.468L5.828 7c-.219.508-.445.96-.672 1.36a5.48 5.48 0 0 1-.734 1c-.68.706-1.399 1.1-2.156 1.187-.762.094-1.438-.14-2.032-.703a3.152 3.152 0 0 1-.656-.953c-.156-.344-.27-.82-.344-1.422-.02-.168-.039-.664-.062-1.485-.031-.812-.07-1.953-.125-3.421zm0 0" stroke="none"></path></symbol><symbol id="O" overflow="visible"><path d="M-1.016 2.547l-3.187 3.187-.766-.765L-.687.687l.765.766c.02.707.031 1.66.031 2.86.008 1.207.032 1.972.063 2.296.031.633.098 1.118.203 1.454.113.343.281.624.5.843.363.364.785.535 1.266.516.476-.024.921-.235 1.328-.64.289-.294.547-.65.765-1.063a7.04 7.04 0 0 0 .547-1.469l.922.922c-.219.508-.453.96-.703 1.36a5.247 5.247 0 0 1-.75 1c-.7.695-1.434 1.077-2.203 1.14-.774.062-1.45-.2-2.031-.781a2.964 2.964 0 0 1-.625-.938c-.145-.355-.25-.844-.313-1.469-.008-.156-.02-.648-.031-1.468-.02-.813-.04-1.97-.063-3.47zm0 0" stroke="none"></path></symbol><symbol id="P" overflow="visible"><path d="M5.578 7.828l-3.656 3.516-.75-.781 2.797-2.688-1.61-1.672c-.093.164-.199.328-.312.484-.117.157-.242.301-.375.438-.762.738-1.563 1.11-2.406 1.11-.852.007-1.625-.344-2.313-1.063-.719-.742-1.039-1.54-.969-2.39.075-.856.528-1.684 1.36-2.485.281-.274.601-.527.953-.766.344-.242.726-.468 1.14-.687l.891.937c-.426.125-.82.29-1.187.5a5.79 5.79 0 0 0-1.032.797c-.53.508-.816 1.05-.859 1.625-.04.57.172 1.098.64 1.578.45.477.965.707 1.547.688.57-.012 1.125-.274 1.657-.782.25-.242.468-.507.656-.796.195-.293.367-.633.516-1.016zm0 0" stroke="none"></path></symbol><symbol id="Q" overflow="visible"><path d="M-.25 2.734l-2.156 3.954-.953-.532L-.453.844l.953.531c.207.664.484 1.57.828 2.719.344 1.156.57 1.89.688 2.203.218.582.425 1.02.625 1.312.195.301.43.532.703.688.445.238.894.273 1.344.11.457-.157.82-.485 1.093-.985a4.3 4.3 0 0 0 .422-1.234c.094-.461.14-.985.14-1.579l1.141.625a9.638 9.638 0 0 1-.28 1.516 6.063 6.063 0 0 1-.454 1.172c-.469.863-1.063 1.437-1.781 1.719-.719.28-1.446.226-2.172-.157-.344-.199-.637-.449-.875-.75-.242-.293-.469-.726-.688-1.296A33.027 33.027 0 0 1 .766 6.03C.516 5.25.176 4.148-.25 2.734zm0 0" stroke="none"></path></symbol><symbol id="R" overflow="visible"><path d="M4.844 8.5L2.047 3.125.422 5.953zM6 8.766l-.813 1.406-5.406-3.11-.687 1.188-.938-.531.688-1.188-1.953-1.125.64-1.11 1.953 1.126 2.157-3.734 1.078.625zm0 0" stroke="none"></path></symbol><symbol id="S" overflow="visible"><path d="M5.219 8.047c.343-.574.32-1.172-.063-1.797-.375-.625-1.12-1.277-2.234-1.953C1.816 3.617.895 3.25.156 3.187c-.726-.054-1.265.208-1.61.782-.35.57-.335 1.164.048 1.781.386.625 1.133 1.273 2.234 1.953 1.113.676 2.035 1.047 2.766 1.11.726.062 1.27-.196 1.625-.766zm.86.531c-.563.906-1.352 1.375-2.36 1.406-1 .04-2.188-.355-3.563-1.187-1.351-.836-2.242-1.711-2.672-2.625-.425-.918-.359-1.828.204-2.734C-1.758 2.53-.978 2.054.03 2.016c1.008-.043 2.192.351 3.547 1.187 1.375.832 2.27 1.707 2.688 2.625.425.926.363 1.844-.188 2.75zm0 0" stroke="none"></path></symbol><symbol id="T" overflow="visible"><path d="M.453 2.672L-.625 7.047l-1.047-.25L-.234.922l1.046.25c.383.601.891 1.414 1.516 2.437.633 1.02 1.04 1.672 1.219 1.954.351.5.664.867.937 1.109.27.238.555.394.86.469.5.125.941.05 1.328-.22.394-.273.66-.687.797-1.25.093-.398.125-.827.093-1.296a8.006 8.006 0 0 0-.25-1.547l1.25.313c.083.562.118 1.07.11 1.53a5.574 5.574 0 0 1-.156 1.235c-.23.946-.653 1.649-1.266 2.11-.617.457-1.324.586-2.125.39a2.79 2.79 0 0 1-1.031-.484c-.305-.219-.637-.574-1-1.063-.106-.136-.375-.546-.813-1.234A194.27 194.27 0 0 1 .453 2.672zm0 0" stroke="none"></path></symbol><symbol id="U" overflow="visible"><path d="M8.86 3.844L7.546 8.75 6.5 8.484 7.516 4.72l-2.25-.61c0 .196-.012.391-.032.579a2.82 2.82 0 0 1-.093.562c-.274 1.02-.774 1.754-1.5 2.203-.73.457-1.579.555-2.547.297C.114 7.477-.57 6.957-.97 6.187c-.394-.761-.441-1.703-.14-2.828.117-.386.261-.777.437-1.171.168-.387.375-.766.625-1.141l1.266.328a5.19 5.19 0 0 0-.766 1.031A4.76 4.76 0 0 0-.03 3.61c-.188.72-.157 1.332.093 1.844.258.52.711.867 1.36 1.047.644.164 1.21.094 1.703-.219.5-.312.844-.828 1.031-1.547.094-.336.145-.68.157-1.03a5.958 5.958 0 0 0-.079-1.095zm0 0" stroke="none"></path></symbol><symbol id="V" overflow="visible"><path d="M8.75 3.984L7.344 8.86l-1.032-.296 1.079-3.735-2.235-.64a4.083 4.083 0 0 1-.14 1.14C4.71 6.348 4.19 7.07 3.453 7.5c-.73.438-1.57.52-2.515.25-.989-.293-1.665-.824-2.032-1.594-.375-.773-.398-1.715-.078-2.828.117-.375.266-.758.453-1.14.18-.387.39-.778.64-1.172l1.25.359a4.883 4.883 0 0 0-.765 1.016c-.21.375-.375.773-.5 1.203C-.3 4.3-.28 4.914-.03 5.438c.25.519.691.875 1.328 1.062.633.176 1.195.113 1.687-.188.5-.304.852-.808 1.063-1.515.094-.336.144-.672.156-1.016.02-.344.004-.719-.047-1.125zm0 0" stroke="none"></path></symbol><symbol id="W" overflow="visible"><path d="M1.125 2.484l.094 4.5L.14 7 .016.953 1.094.938c.52.476 1.21 1.128 2.078 1.953.875.82 1.437 1.343 1.687 1.562.477.406.875.688 1.188.844.32.156.64.226.953.219.508-.012.922-.2 1.234-.563.313-.355.461-.82.454-1.39a4.246 4.246 0 0 0-.25-1.282A8.313 8.313 0 0 0 7.78.86L9.078.844c.219.508.383.988.5 1.437.113.457.176.875.188 1.25.02.977-.211 1.766-.688 2.36-.48.601-1.133.91-1.953.921A2.782 2.782 0 0 1 6 6.61c-.355-.136-.777-.39-1.266-.765-.125-.117-.492-.45-1.093-1-.594-.555-1.434-1.34-2.516-2.36zm0 0" stroke="none"></path></symbol><symbol id="X" overflow="visible"><path d="M9.5 1.234l-.094 6.11-.547-.016-8.921-3.594.03-1.343 8.376 3.39.078-4.562zm0 0" stroke="none"></path></symbol><symbol id="Y" overflow="visible"><path d="M8.578 4.344c.02-.668-.293-1.18-.937-1.532-.649-.343-1.625-.53-2.938-.562-1.305-.023-2.289.125-2.953.438-.656.32-.996.816-1.016 1.484-.011.664.305 1.172.954 1.516.656.351 1.632.539 2.937.562 1.313.031 2.297-.117 2.953-.438.656-.312.988-.804 1-1.468zm1.016.015C9.57 5.422 9.133 6.223 8.28 6.766c-.855.55-2.086.804-3.687.765C2.988 7.5 1.77 7.191.937 6.61.103 6.035-.3 5.22-.28 4.156-.25 3.082.19 2.27 1.047 1.72c.851-.543 2.082-.797 3.687-.766 1.602.04 2.82.348 3.657.922.832.582 1.234 1.41 1.203 2.484zm0 0" stroke="none"></path></symbol><symbol id="Z" overflow="visible"><path d="M1.734 2.11l1.25 4.312-1.03.297L.265.922l1.03-.297c.626.32 1.47.766 2.532 1.328 1.063.57 1.735.93 2.016 1.078.57.27 1.031.438 1.375.5.351.07.676.067.968-.015.489-.149.836-.438 1.047-.875.207-.43.235-.918.079-1.47A4.58 4.58 0 0 0 8.75 0a7.592 7.592 0 0 0-1.016-1.203l1.25-.36c.344.438.63.86.86 1.266.226.406.394.785.5 1.14.27.946.254 1.77-.047 2.47-.305.707-.852 1.175-1.64 1.406a3.127 3.127 0 0 1-1.141.093c-.375-.042-.852-.18-1.422-.406A53.595 53.595 0 0 0 4.78 3.72c-.718-.375-1.734-.914-3.047-1.61zm0 0" stroke="none"></path></symbol><symbol id="aa" overflow="visible"><path d="M5.438 2.844C5.28 2.25 5 1.82 4.593 1.563c-.407-.25-.89-.297-1.453-.141-.555.144-.946.426-1.172.844-.219.425-.25.937-.094 1.53.156.595.441 1.017.86 1.267.413.257.894.316 1.437.171.562-.156.953-.449 1.172-.875.218-.418.25-.921.093-1.515zm.203-1.39C5.629.878 5.766.393 6.047 0c.281-.383.68-.648 1.203-.797C8-.992 8.656-.89 9.219-.484c.562.406.969 1.066 1.219 1.984.25.914.226 1.688-.063 2.313-.281.632-.797 1.05-1.547 1.25-.523.144-1.008.113-1.453-.094-.438-.2-.793-.54-1.063-1.016.02.625-.132 1.16-.453 1.61-.312.445-.765.753-1.359.921-.887.227-1.64.133-2.266-.28C1.61 5.784 1.16 5.07.891 4.062.617 3.038.648 2.19.984 1.515 1.316.848 1.926.398 2.813.172 3.405.004 3.944.035 4.437.266c.5.226.899.625 1.204 1.187zM7.484.468c-.48.133-.812.383-1 .75-.187.363-.21.816-.062 1.36.144.53.39.91.734 1.14.344.238.754.289 1.235.156.476-.125.812-.375 1-.75.187-.375.207-.828.062-1.36-.148-.542-.39-.93-.734-1.156C8.375.391 7.96.344 7.484.47zm0 0" stroke="none"></path></symbol><symbol id="ab" overflow="visible"><path d="M9.563-.906l1.218 4.922-1.047.25L8.813.5l-2.25.563A3.57 3.57 0 0 1 7 2.109c.25 1.032.164 1.914-.25 2.657-.406.738-1.094 1.226-2.063 1.468-1 .25-1.855.13-2.562-.359-.71-.492-1.2-1.297-1.469-2.422A7.112 7.112 0 0 1 .47 2.25 10.64 10.64 0 0 1 .453.922l1.25-.313a5.245 5.245 0 0 0-.156 1.266c0 .426.05.86.156 1.297.176.707.504 1.223.984 1.547.477.32 1.04.406 1.688.25.633-.157 1.086-.492 1.36-1 .28-.512.331-1.121.156-1.828a4.783 4.783 0 0 0-.36-.985 4.69 4.69 0 0 0-.61-.922zm0 0" stroke="none"></path></symbol><symbol id="ac" overflow="visible"><path d="M7.14 1.86c.208.593.223 1.144.048 1.656-.18.52-.532.937-1.063 1.25-.805.488-1.59.586-2.36.296-.773-.28-1.464-.93-2.078-1.937A6.829 6.829 0 0 1 1.141 2 13.29 13.29 0 0 1 .75.719L1.828.063c.008.414.078.832.203 1.25.133.414.32.816.563 1.203.426.695.883 1.14 1.375 1.328.488.195.988.14 1.5-.172.476-.293.75-.695.812-1.203.07-.5-.07-1.047-.422-1.64l-.578-.954.907-.547.593 1c.332.54.692.89 1.078 1.047.383.156.782.11 1.188-.14.414-.25.644-.594.687-1.032.051-.426-.09-.914-.421-1.469a6.122 6.122 0 0 0-.704-.906c-.273-.3-.601-.617-.984-.953l.984-.594c.364.344.68.684.954 1.016.28.324.519.648.718.969.508.836.723 1.609.64 2.328-.085.726-.448 1.289-1.093 1.687-.45.27-.906.367-1.375.297-.469-.062-.906-.305-1.312-.719zm0 0" stroke="none"></path></symbol><symbol id="ad" overflow="visible"><path d="M9.625-.734c-.336-.57-.871-.836-1.61-.797-.73.031-1.667.375-2.812 1.031C4.066.156 3.301.79 2.906 1.406c-.398.614-.43 1.207-.094 1.782.333.582.864.851 1.594.812.727-.031 1.66-.375 2.797-1.031 1.145-.656 1.914-1.293 2.313-1.906.406-.618.441-1.211.109-1.797zm.89-.5c.532.937.567 1.859.11 2.765-.45.907-1.375 1.758-2.781 2.563-1.387.8-2.59 1.172-3.61 1.11-1.011-.063-1.78-.563-2.312-1.5-.531-.93-.574-1.852-.125-2.767C2.242.031 3.16-.82 4.547-1.624c1.406-.8 2.617-1.164 3.64-1.094 1.02.063 1.797.559 2.329 1.485zm0 0" stroke="none"></path></symbol><symbol id="ae" overflow="visible"><path d="M9.594-.547c-.313-.582-.836-.863-1.563-.844-.73.024-1.672.352-2.828.985C4.066.227 3.29.848 2.875 1.454c-.418.6-.469 1.194-.156 1.78.32.582.851.864 1.594.844.738-.023 1.675-.351 2.812-.984 1.156-.637 1.938-1.258 2.344-1.86.406-.605.445-1.199.125-1.78zm.89-.484c.52.93.547 1.836.079 2.734-.47.906-1.407 1.742-2.813 2.516C6.344 5 5.133 5.344 4.125 5.25c-1.012-.086-1.777-.59-2.297-1.516-.512-.937-.531-1.859-.062-2.765C2.234.07 3.172-.766 4.578-1.547c1.406-.77 2.613-1.11 3.625-1.016 1.008.086 1.77.594 2.281 1.532zm0 0" stroke="none"></path></symbol><symbol id="af" overflow="visible"><path d="M7.36-.047c.35.531.507 1.063.468 1.594-.031.539-.262 1.031-.687 1.469-.649.675-1.383.976-2.204.906-.824-.074-1.664-.524-2.515-1.344a7.456 7.456 0 0 1-.813-.937A8.81 8.81 0 0 1 .906.484l.875-.906c.114.406.282.79.5 1.156a5 5 0 0 0 .86 1.047c.57.551 1.125.852 1.656.907.531.062 1.004-.126 1.422-.563.383-.398.547-.844.484-1.344-.062-.5-.351-.992-.86-1.484l-.796-.75.734-.766.828.797c.457.438.895.684 1.313.734.426.055.8-.093 1.125-.437.344-.352.476-.742.406-1.172-.074-.437-.34-.879-.797-1.328a6.35 6.35 0 0 0-.906-.672 12.492 12.492 0 0 0-1.203-.672l.781-.828c.445.23.848.469 1.203.719.352.25.664.508.938.766.695.667 1.097 1.359 1.203 2.078.113.71-.09 1.34-.61 1.89-.367.375-.78.586-1.25.64C8.345.36 7.86.243 7.36-.046zm0 0" stroke="none"></path></symbol><symbol id="ag" overflow="visible"><path d="M1.922.39l1.5 1.5L8.594-3.28 6.609-4.578l.844-.844 1.953 1.297.922.922-6 6L5.812 4.28l-.765.766-3.89-3.89zm0 0" stroke="none"></path></symbol><symbol id="ah" overflow="visible"><path d="M7.828-5.563l3.5 3.641-.781.75-2.688-2.797-1.671 1.61c.175.093.335.199.484.312.156.117.297.242.422.375.738.774 1.11 1.578 1.11 2.422.007.852-.34 1.625-1.048 2.313-.742.707-1.539 1.023-2.39.953-.856-.063-1.684-.516-2.485-1.36a8.424 8.424 0 0 1-.765-.953C1.286 1.36 1.062.977.844.563l.937-.891c.125.426.285.82.485 1.187.207.364.468.711.78 1.047.509.532 1.052.813 1.626.844.57.04 1.098-.168 1.578-.625.477-.46.707-.977.688-1.547-.012-.574-.274-1.125-.782-1.656a4.566 4.566 0 0 0-.797-.656 5.528 5.528 0 0 0-.968-.532zm0 0" stroke="none"></path></symbol><symbol id="ai" overflow="visible"><path d="M7.125-1.953c.469.418.754.89.86 1.422.1.531.003 1.066-.298 1.61-.449.82-1.078 1.3-1.89 1.437-.813.144-1.742-.07-2.781-.641a5.742 5.742 0 0 1-1.032-.703 8.373 8.373 0 0 1-.968-.938l.593-1.093c.22.355.489.68.813.968.32.301.68.563 1.078.782.719.394 1.336.554 1.86.484.519-.074.925-.375 1.218-.906.27-.489.305-.969.11-1.438-.188-.476-.59-.883-1.204-1.219l-.968-.546.515-.922 1.016.562c.55.313 1.035.446 1.453.39.414-.062.738-.304.969-.733.238-.426.27-.836.094-1.235-.18-.394-.555-.75-1.126-1.062a5.645 5.645 0 0 0-1.062-.454A9.682 9.682 0 0 0 5.047-6.5l.547-1c.5.105.953.234 1.36.39.405.15.769.31 1.093.485.863.469 1.437 1.04 1.719 1.703.289.656.254 1.32-.11 1.984-.25.461-.601.778-1.047.954-.437.18-.933.187-1.484.03zm0 0" stroke="none"></path></symbol><symbol id="aj" overflow="visible"><path d="M7.172-1.828c.476.43.766.914.86 1.453.093.54-.012 1.078-.313 1.61-.48.82-1.133 1.288-1.953 1.406-.813.113-1.743-.125-2.782-.72a7.01 7.01 0 0 1-1.015-.718A9.26 9.26 0 0 1 1 .25l.625-1.078c.207.355.469.683.781.984.32.313.688.582 1.094.813.707.406 1.32.57 1.844.5.52-.063.937-.36 1.25-.89.281-.493.328-.97.14-1.438-.187-.477-.586-.891-1.187-1.235l-.969-.547.531-.921 1.016.578c.54.312 1.02.445 1.438.39.425-.05.757-.285 1-.703.25-.426.285-.836.109-1.234-.168-.395-.531-.754-1.094-1.078a6.533 6.533 0 0 0-1.062-.47 11.247 11.247 0 0 0-1.329-.359l.563-1c.5.118.953.258 1.36.422.406.157.769.329 1.093.516.852.48 1.414 1.059 1.688 1.734.28.668.226 1.336-.157 2-.261.461-.617.774-1.062.938-.438.168-.938.168-1.5 0zm0 0" stroke="none"></path></symbol><symbol id="ak" overflow="visible"><path d="M8.063-5.266c-.575-.343-1.172-.32-1.797.063-.625.387-1.278 1.14-1.954 2.266-.68 1.117-1.046 2.042-1.109 2.78-.055.727.207 1.266.781 1.61.563.344 1.157.317 1.782-.078C6.398.988 7.055.238 7.734-.875 8.41-2 8.774-2.925 8.828-3.656c.05-.727-.203-1.266-.765-1.61zm.515-.859C9.484-5.57 9.957-4.789 10-3.781c.04 1.011-.352 2.203-1.172 3.578C7.992 1.172 7.118 2.07 6.203 2.5c-.918.426-1.828.363-2.734-.188C2.539 1.75 2.055.962 2.016-.046c-.043-1.008.351-2.203 1.187-3.578.82-1.375 1.692-2.273 2.61-2.703.914-.426 1.835-.36 2.765.203zm0 0" stroke="none"></path></symbol><symbol id="al" overflow="visible"><path d="M6.36-3.75c.57.281.976.668 1.218 1.156.238.492.285 1.031.14 1.625C7.5-.063 7.009.566 6.25.921c-.75.352-1.7.391-2.844.11A7.847 7.847 0 0 1 2.22.61C1.832.43 1.438.22 1.03-.03l.297-1.219c.29.281.633.527 1.031.734.395.211.817.368 1.266.47.781.187 1.41.175 1.89-.032.489-.207.805-.602.954-1.188.133-.539.047-1.015-.266-1.421-.312-.407-.808-.692-1.484-.86L3.64-3.812l.25-1.032 1.125.266c.613.156 1.113.156 1.5 0 .394-.164.648-.484.765-.953.114-.477.032-.883-.25-1.219-.281-.332-.734-.57-1.36-.719a6.458 6.458 0 0 0-1.124-.156 9.099 9.099 0 0 0-1.375.016l.265-1.11c.5-.02.97-.008 1.407.031.437.043.836.106 1.203.188.945.242 1.644.64 2.094 1.203.445.563.582 1.215.406 1.953-.125.512-.375.907-.75 1.188-.375.281-.856.418-1.438.406zm0 0" stroke="none"></path></symbol><symbol id="am" overflow="visible"><path d="M6.969-6.875L2.484-2.781l3.157.844zm-.032-1.156L8.5-7.61 6.89-1.594l1.313.344-.281 1.047-1.313-.344-.578 2.172-1.25-.344L5.36-.89 1.203-2l.328-1.203zm0 0" stroke="none"></path></symbol><symbol id="an" overflow="visible"><path d="M3.969-8.75l4.875 1.406-.297 1.032-3.719-1.079-.64 2.235c.195-.008.382 0 .562.031.188.023.375.059.563.11 1.019.292 1.75.804 2.187 1.53.438.731.516 1.575.234 2.532-.28.988-.808 1.664-1.578 2.031-.773.375-1.715.399-2.828.078A6.752 6.752 0 0 1 2.188.72 9.196 9.196 0 0 1 1.03.079l.36-1.25c.3.304.632.558 1 .765.375.21.773.375 1.203.5.719.195 1.332.172 1.844-.078.519-.25.867-.692 1.046-1.329.188-.632.13-1.195-.171-1.687-.305-.5-.813-.848-1.532-1.047a4.8 4.8 0 0 0-1.015-.172c-.344-.02-.715 0-1.11.063zm0 0" stroke="none"></path></symbol><symbol id="ao" overflow="visible"><path d="M-6.016-7.656l1.235-1.266 8.765 2.563-5.796-5.625.89-.907L6-6.17 4.766-4.907-4.016-7.47l5.797 5.625-.875.907zm0 0" stroke="none"></path></symbol><symbol id="ap" overflow="visible"><path d="M-5.813-7.813l4.375-4.265.75.781-3.421 3.344 2 2.047L1.17-9.11l.782.796-3.281 3.204 2.437 2.5 3.516-3.438.766.781L.92-.906zm0 0" stroke="none"></path></symbol><symbol id="aq" overflow="visible"><path d="M-9.703-.969l-.203-6.11 1.094-.046.156 4.797 2.86-.094-.141-4.594 1.109-.03.14 4.593 3.5-.125-.156-4.922 1.094-.031.203 6.234zm0 0" stroke="none"></path></symbol><symbol id="ar" overflow="visible"><path d="M-3.719-4.484c.024.968.149 1.636.375 2 .219.367.594.543 1.125.53.43 0 .762-.14 1-.421.242-.29.356-.672.344-1.14-.008-.665-.25-1.192-.719-1.579-.476-.394-1.101-.582-1.875-.562h-.265zM-4.25-6.86l4.14-.063.016 1.203-1.093.016c.437.262.765.594.984 1 .219.398.332.89.344 1.484.007.742-.188 1.336-.594 1.781-.414.438-.973.665-1.672.672-.813.012-1.43-.25-1.86-.78-.425-.54-.644-1.352-.656-2.438l-.03-1.657h-.11c-.551.012-.973.2-1.266.563-.289.367-.43.871-.422 1.516.012.417.07.82.172 1.203.106.386.262.761.469 1.125l-1.11.015a7.718 7.718 0 0 1-.39-1.25 6.121 6.121 0 0 1-.156-1.203c-.02-1.039.242-1.828.78-2.36.532-.53 1.352-.804 2.454-.827zm0 0" stroke="none"></path></symbol><symbol id="as" overflow="visible"><path d="M-6.938-5.984l1.125.015a5.314 5.314 0 0 0-.406 1.047c-.093.356-.14.73-.14 1.125-.008.586.074 1.027.25 1.328.18.305.445.453.796.453.282.012.508-.086.672-.296.157-.22.313-.641.47-1.266l.093-.406c.187-.844.45-1.438.781-1.782.336-.351.797-.523 1.39-.515.68.011 1.212.289 1.595.828.382.531.566 1.262.546 2.187 0 .399-.043.805-.125 1.22-.086.417-.203.858-.359 1.327L-1.484-.75c.23-.426.406-.852.53-1.281.126-.426.188-.848.188-1.266.012-.562-.078-.992-.265-1.297a.93.93 0 0 0-.797-.468c-.32 0-.567.109-.734.328-.176.21-.36.68-.547 1.406l-.094.422c-.164.73-.41 1.258-.735 1.578-.32.324-.765.484-1.328.484-.687-.02-1.21-.273-1.578-.765-.363-.489-.535-1.176-.515-2.063 0-.445.039-.863.109-1.25a5.63 5.63 0 0 1 .313-1.062zm0 0" stroke="none"></path></symbol><symbol id="at" overflow="visible"><path d="M-9.219-2.734l2.047.062.094-2.453.922.031-.094 2.453 3.938.141c.593.023.98-.047 1.156-.203.168-.156.261-.485.281-.985l.047-1.218 1 .031-.047 1.219c-.031.918-.223 1.547-.578 1.89-.352.336-.984.485-1.89.454l-3.938-.141-.032.875-.921-.031.03-.875-2.046-.063zm0 0" stroke="none"></path></symbol><symbol id="au" overflow="visible"><path d="M-11.594 1.703l.89-.906c.188.52.403.973.642 1.36.23.394.492.738.78 1.03.512.489 1 .77 1.47.844.468.07.875-.07 1.218-.422.305-.312.438-.636.407-.968-.032-.336-.254-.797-.672-1.391l-.454-.656c-.562-.82-.843-1.563-.843-2.219-.008-.656.258-1.266.797-1.828.656-.664 1.382-.953 2.171-.86.782.086 1.606.547 2.47 1.391.335.324.652.703.952 1.14.293.438.57.919.829 1.438l-.938.969a7.99 7.99 0 0 0-.656-1.563 5.105 5.105 0 0 0-.922-1.218c-.531-.52-1.04-.817-1.531-.89-.5-.083-.942.07-1.329.452-.332.344-.488.719-.468 1.125.023.399.226.871.61 1.422l.452.672c.563.82.86 1.531.89 2.125.024.602-.226 1.172-.75 1.703-.593.602-1.273.867-2.046.797-.77-.063-1.535-.465-2.297-1.203a8.68 8.68 0 0 1-1.672-2.344zm0 0" stroke="none"></path></symbol><symbol id="av" overflow="visible"><path d="M-7.813 5.828l-4.265-4.375.781-.766 3.344 3.438 2.047-2-3.203-3.297.796-.781 3.204 3.297 2.5-2.438-3.438-3.531.781-.766 4.36 4.47zm0 0" stroke="none"></path></symbol><symbol id="aw" overflow="visible"><path d="M-6.61 9.688l-.062-1.282c.512.219.984.367 1.422.453a4.99 4.99 0 0 0 1.281.11c.711-.031 1.25-.2 1.625-.5.375-.293.547-.688.516-1.188-.02-.43-.16-.742-.422-.937-.27-.2-.77-.352-1.5-.453l-.781-.11c-.977-.148-1.711-.445-2.203-.89-.489-.438-.75-1.047-.782-1.829-.05-.937.22-1.667.813-2.187.594-.512 1.5-.797 2.719-.86.46-.019.949.005 1.468.079C-1.992.176-1.453.3-.89.469l.079 1.344a8.327 8.327 0 0 0-1.594-.579 5.367 5.367 0 0 0-1.516-.156c-.75.04-1.316.219-1.703.531-.383.313-.566.739-.547 1.282.031.476.2.843.5 1.093.293.25.777.422 1.453.516l.797.125c.98.145 1.7.41 2.156.797.461.394.711.957.75 1.687.043.852-.222 1.54-.796 2.063-.57.52-1.391.805-2.454.86-.445.019-.906.003-1.375-.048a8.984 8.984 0 0 1-1.468-.296zm0 0" stroke="none"></path></symbol><symbol id="ax" overflow="visible"><path d="M-3.89 6.516c.648-.024 1.152-.29 1.515-.797.355-.5.516-1.188.484-2.063-.02-.867-.222-1.543-.609-2.031-.383-.48-.898-.71-1.547-.688a1.764 1.764 0 0 0-1.469.797c-.363.508-.535 1.192-.515 2.047.031.864.242 1.54.625 2.031.386.489.89.723 1.515.704zm.03 1.015c-1.03.032-1.847-.281-2.453-.937-.613-.657-.937-1.586-.968-2.782-.032-1.18.242-2.117.812-2.812.574-.688 1.375-1.047 2.407-1.078C-3.02-.11-2.196.203-1.595.859c.606.664.922 1.586.953 2.766.032 1.195-.234 2.14-.796 2.828-.57.688-1.38 1.047-2.422 1.078zm0 0" stroke="none"></path></symbol><symbol id="ay" overflow="visible"><path d="M-1.078 2.875L-1 7.265l-1.188.016-.078-4.343c-.007-.688-.148-1.204-.421-1.547-.282-.336-.688-.496-1.22-.485-.644.008-1.148.223-1.515.64-.363.415-.539.977-.531 1.688l.078 4.11-1.188.015-.125-7.25L-6 .094l.016 1.11c.273-.438.601-.766.984-.985a2.782 2.782 0 0 1 1.328-.344c.836-.008 1.469.234 1.906.734.438.508.668 1.266.688 2.266zM-4 7.485zm0 0" stroke="none"></path></symbol><symbol id="az" overflow="visible"><path d="M-2.656 9.234l.047-2.046-2.454-.063.032-.922 2.453.063.094-3.938c.023-.594-.047-.98-.204-1.156-.164-.168-.5-.258-1-.266L-4.905.875l.031-1 1.219.031c.918.024 1.547.207 1.89.563.336.351.493.984.47 1.89l-.095 3.938.875.016-.03.921-.876-.015-.047 2.047zm0 0" stroke="none"></path></symbol><symbol id="aA" overflow="visible"><path d="M-7.484 4.016l.218-4.375 1.172.062-.218 4.344c-.032.687.085 1.203.343 1.547.25.343.64.531 1.172.562.649.032 1.168-.152 1.563-.547.386-.386.593-.933.625-1.64l.203-4.094 1.203.063-.5 10.062-1.203-.063L-2.72 6c-.3.414-.648.719-1.047.906-.394.196-.847.285-1.359.266-.832-.043-1.445-.328-1.844-.86-.394-.53-.566-1.296-.515-2.296zm0 0" stroke="none"></path></symbol><symbol id="aB" overflow="visible"><path d="M1.828 11.531l-.906-.875a7.545 7.545 0 0 0 1.344-.64c.382-.23.722-.496 1.015-.797.489-.512.766-1 .828-1.469.07-.469-.074-.883-.437-1.234-.313-.293-.64-.422-.985-.391-.335.031-.792.266-1.374.703l-.657.453c-.8.582-1.531.875-2.187.875-.657.008-1.266-.258-1.828-.797-.676-.656-.973-1.375-.891-2.156.086-.781.543-1.605 1.375-2.469a7.298 7.298 0 0 1 1.125-.937c.43-.305.902-.586 1.422-.844l.984.922a8.213 8.213 0 0 0-1.562.672 4.865 4.865 0 0 0-1.203.922c-.52.539-.813 1.05-.875 1.531-.063.488.101.922.484 1.297.344.332.715.488 1.11.469.386-.024.855-.23 1.406-.625l.656-.454c.82-.574 1.531-.875 2.125-.906.594-.023 1.156.219 1.687.719.614.594.891 1.273.829 2.047-.055.77-.446 1.535-1.172 2.297-.313.32-.664.625-1.047.906-.387.281-.809.54-1.266.781zm0 0" stroke="none"></path></symbol><symbol id="aC" overflow="visible"><path d="M6.438 7.266l-.954.921-7.156-4.468 4.234 7.312L1.5 12.047l-7.156-4.453 4.25 7.281-.969.938-5-8.641 1.188-1.156 7.343 4.593-4.39-7.468L-2.063 2zm0 0" stroke="none"></path></symbol><symbol id="aD" overflow="visible"><path d="M9.672.078l.047 1.328L1.64 3.734l8.234 1.72.047 1.468L1.844 9.25l8.219 1.734.062 1.313-9.75-2.063-.063-1.64L8.626 6.25.172 4.5.109 2.86zm0 0" stroke="none"></path></symbol><symbol id="aE" overflow="visible"><path d="M4.047 7.39l-.578.016-.094-5.484c-.824.062-1.445.316-1.86.766-.417.445-.62 1.066-.609 1.859 0 .457.055.898.172 1.328.125.426.3.848.531 1.266l-1.125.03A7.395 7.395 0 0 1 .047 5.86 6.21 6.21 0 0 1-.11 4.484C-.13 3.328.187 2.406.844 1.72 1.508 1.039 2.414.69 3.563.672c1.187-.024 2.132.281 2.843.906.707.633 1.067 1.492 1.078 2.578.02.977-.28 1.754-.906 2.328-.617.582-1.46.883-2.531.907zm.312-1.202c.657-.012 1.172-.204 1.547-.579.383-.367.57-.84.563-1.421-.012-.668-.211-1.196-.594-1.579-.375-.386-.902-.605-1.578-.656zm0 0" stroke="none"></path></symbol><symbol id="aF" overflow="visible"><path d="M6.906 6.016L5.781 6c.188-.344.328-.7.422-1.063.094-.355.14-.73.14-1.125.009-.585-.073-1.027-.25-1.328-.167-.293-.429-.445-.78-.453-.282-.011-.508.086-.672.297-.157.219-.313.64-.47 1.266L4.063 4c-.199.844-.464 1.438-.796 1.781-.336.352-.797.524-1.391.516-.68-.024-1.21-.305-1.594-.844-.375-.531-.55-1.262-.531-2.187.012-.399.059-.805.14-1.22.075-.417.192-.858.36-1.327L1.484.75a5.935 5.935 0 0 0-.546 1.281C.82 2.457.758 2.88.75 3.297c-.012.562.078.992.266 1.297.187.312.453.468.796.468.32.008.567-.093.735-.312.176-.21.36-.68.547-1.406l.094-.422c.175-.742.425-1.274.75-1.594.32-.312.765-.465 1.328-.453.687.008 1.207.258 1.562.75.363.488.535 1.176.516 2.063 0 .445-.04.863-.11 1.25a5.246 5.246 0 0 1-.328 1.078zm0 0" stroke="none"></path></symbol><symbol id="aG" overflow="visible"><path d="M9.219 2.703l-2.047-.062-.063 2.453-.921-.032.062-2.453L2.312 2.5c-.593-.023-.98.047-1.156.203-.168.156-.258.485-.265.985L.859 4.905l-1-.031.032-1.219c.03-.918.222-1.547.578-1.89.351-.336.984-.485 1.89-.454l3.938.11.016-.875.921.031-.015.875 2.047.063zm0 0" stroke="none"></path></symbol><symbol id="aH" overflow="visible"><path d="M7.594-6.063l1.265 1.22-2.484 8.765 5.563-5.813.906.875-6.656 6.954-1.25-1.22 2.468-8.765-5.562 5.813L.937.89zm0 0" stroke="none"></path></symbol><symbol id="aI" overflow="visible"><path d="M7.234-6.406l.938.953-4.453 7.14 7.265-4.234L12-1.484 7.547 5.64l7.281-4.204.922.954-8.64 4.968-1.141-1.187 4.625-7.281-7.469 4.343-1.14-1.171zm0 0" stroke="none"></path></symbol><symbol id="aJ" overflow="visible"><path d="M.813-9.719l1.765-.094 4.688 7.86-.407-8.078 1.266-.063.484 9.656-1.765.094-4.672-7.86.406 8.079-1.281.063zm0 0" stroke="none"></path></symbol><symbol id="aK" overflow="visible"><path d="M3.906-6.5c-.648.012-1.148.273-1.5.781-.355.5-.523 1.188-.5 2.063.02.867.219 1.543.594 2.031.383.48.898.715 1.547.703.625-.008 1.117-.27 1.484-.781.364-.508.535-1.192.516-2.047-.024-.863-.23-1.54-.625-2.031-.387-.489-.89-.727-1.516-.719zm-.015-1.016c1.03-.02 1.847.297 2.453.954.601.656.922 1.585.953 2.78.02 1.18-.258 2.118-.828 2.813C5.895-.28 5.094.071 4.062.094 3.02.114 2.196-.203 1.595-.86.988-1.523.676-2.445.656-3.625c-.031-1.195.239-2.14.813-2.828.57-.688 1.379-1.04 2.422-1.063zm0 0" stroke="none"></path></symbol><symbol id="aL" overflow="visible"><path d="M5.578-6.031a2.266 2.266 0 0 0-.437-.172 2.203 2.203 0 0 0-.532-.063c-.668-.02-1.187.188-1.562.625-.367.43-.555 1.055-.563 1.875L2.406.047 1.203.03l.14-7.25 1.204.016-.016 1.125c.258-.426.586-.742.985-.953.406-.207.894-.305 1.468-.297.082 0 .172.012.266.031.102.012.21.027.328.047zm0 0" stroke="none"></path></symbol><symbol id="aM" overflow="visible"><path d="M2.64-9.234l-.046 2.046 2.453.047-.016.922-2.453-.047-.094 3.938c-.023.594.047.976.204 1.14.164.168.5.262 1 .282l1.218.015-.031 1L3.656.094C2.738.062 2.11-.125 1.766-.47c-.336-.351-.493-.984-.47-1.89l.095-3.938-.875-.016.015-.921.875.015.047-2.047zm0 0" stroke="none"></path></symbol><symbol id="aN" overflow="visible"><path d="M7.469-4.016L7.25.36 6.078.297l.219-4.328c.031-.688-.078-1.203-.328-1.547-.25-.352-.64-.547-1.172-.578-.649-.032-1.168.152-1.563.547-.386.386-.593.933-.625 1.64L2.406.125 1.203.062l.5-10.046 1.203.062L2.703-6c.313-.414.664-.719 1.063-.906.394-.196.847-.285 1.359-.266.82.043 1.43.328 1.828.86.395.53.567 1.296.516 2.296zm0 0" stroke="none"></path></symbol></defs><path fill-rule="nonzero" fill="#000000" fill-opacity="1" stroke-width=".24527" stroke-linecap="butt" stroke-linejoin="miter" stroke="#000000" stroke-opacity="1" stroke-miterlimit="10" d="M350 18.887C167.134 18.887 18.888 167.133 18.888 350c0 182.87 148.246 331.117 331.114 331.117 182.87 0 331.117-148.246 331.117-331.117 0-182.868-148.246-331.114-331.117-331.114zm288.02 341.172c-.058 1.68-.128 3.356-.214 5.027-.086 1.672-.188 3.34-.301 5a292.973 292.973 0 0 1-2.078 20.031c-.23 1.657-.477 3.31-.739 4.954a339.007 339.007 0 0 1-.824 4.984 283.141 283.141 0 0 1-2.996 14.793 260.934 260.934 0 0 1-1.164 4.871c-.406 1.633-.828 3.27-1.262 4.903a268.32 268.32 0 0 1-1.34 4.84 221.493 221.493 0 0 1-1.425 4.828 342.36 342.36 0 0 1-1.512 4.804 282.08 282.08 0 0 1-3.281 9.52c-.57 1.57-1.153 3.137-1.758 4.7a351.703 351.703 0 0 1-1.844 4.683 300.165 300.165 0 0 1-1.93 4.66 299.397 299.397 0 0 1-4.097 9.187 375.925 375.925 0 0 1-2.164 4.532 268.888 268.888 0 0 1-2.254 4.504 268.57 268.57 0 0 1-2.328 4.464 268.208 268.208 0 0 1-4.887 8.797 199.155 199.155 0 0 1-2.55 4.325A312.991 312.991 0 0 1 591.74 507a183.402 183.402 0 0 1-2.766 4.168 359.804 359.804 0 0 1-2.868 4.172 222.975 222.975 0 0 1-2.918 4.086c-.98 1.355-1.98 2.703-2.996 4.039a332.25 332.25 0 0 1-3.07 3.972 456.346 456.346 0 0 1-3.117 3.926 226.966 226.966 0 0 1-3.223 3.898 230.013 230.013 0 0 1-3.258 3.813 433.858 433.858 0 0 1-3.336 3.77 257.009 257.009 0 0 1-3.402 3.71 307.208 307.208 0 0 1-3.453 3.641 307.031 307.031 0 0 1-3.535 3.598 278.826 278.826 0 0 1-7.234 6.984 306.18 306.18 0 0 1-3.712 3.403 273.62 273.62 0 0 1-3.746 3.316 279.83 279.83 0 0 1-7.715 6.473 1061.602 1061.602 0 0 1-3.925 3.136 234.888 234.888 0 0 1-3.993 3.067 332.972 332.972 0 0 1-4.02 2.984 302.763 302.763 0 0 1-4.112 2.942 280.354 280.354 0 0 1-8.332 5.632c-1.407.918-2.82 1.817-4.247 2.7-1.41.886-2.832 1.761-4.265 2.62a338.28 338.28 0 0 1-4.356 2.571c-1.445.84-2.902 1.664-4.363 2.473a342.577 342.577 0 0 1-4.418 2.406 208.45 208.45 0 0 1-4.46 2.332c-1.505.762-3 1.508-4.481 2.238a305.65 305.65 0 0 1-4.563 2.18c-1.527.715-3.05 1.41-4.566 2.082a270.06 270.06 0 0 1-9.278 3.941 240.295 240.295 0 0 1-4.66 1.836c-1.562.598-3.14 1.188-4.734 1.77a262.355 262.355 0 0 1-4.735 1.68 274.82 274.82 0 0 1-9.578 3.11c-1.605.491-3.207.964-4.804 1.42-1.614.466-3.239.915-4.871 1.348-1.633.434-3.254.852-4.864 1.254a254.94 254.94 0 0 1-4.894 1.172 306.53 306.53 0 0 1-4.914 1.086 320.9 320.9 0 0 1-4.907.992c-1.636.32-3.293.625-4.976.918-1.633.29-3.285.563-4.95.82-1.663.258-3.324.505-4.98.735-1.656.234-3.32.453-4.992.652a309.155 309.155 0 0 1-10.008 1.05c-1.676.153-3.348.282-5.004.392-1.668.117-3.344.215-5.027.3-1.68.086-3.356.157-5.028.215-1.664.059-3.332.102-5.003.13-1.676.027-3.36.042-5.055.046-1.676 0-3.352-.015-5.024-.043a312.442 312.442 0 0 1-10.058-.347c-1.672-.086-3.34-.188-5-.297a305.089 305.089 0 0 1-10.035-.871 264.73 264.73 0 0 1-5.004-.563 281.742 281.742 0 0 1-9.946-1.383c-1.644-.261-3.308-.539-4.988-.832a285.002 285.002 0 0 1-9.887-1.906 283.71 283.71 0 0 1-4.906-1.086 260.515 260.515 0 0 1-4.867-1.164c-1.637-.406-3.27-.824-4.906-1.262a287.446 287.446 0 0 1-4.84-1.34 235.13 235.13 0 0 1-4.828-1.425 282.504 282.504 0 0 1-14.316-4.79c-1.575-.57-3.141-1.156-4.704-1.757a332.647 332.647 0 0 1-4.687-1.848 316.927 316.927 0 0 1-4.66-1.93 294.544 294.544 0 0 1-13.72-6.261 268.888 268.888 0 0 1-4.503-2.254c-1.492-.762-2.98-1.54-4.465-2.325a301.255 301.255 0 0 1-8.797-4.886c-1.45-.836-2.89-1.688-4.324-2.555a350.88 350.88 0 0 1-4.29-2.633c-1.421-.89-2.835-1.789-4.241-2.695a208.627 208.627 0 0 1-4.172-2.77 328.734 328.734 0 0 1-4.168-2.867 222.974 222.974 0 0 1-4.086-2.918 211.69 211.69 0 0 1-4.043-2.996 494.135 494.135 0 0 1-3.996-3.074 456.346 456.346 0 0 1-3.926-3.117 199.978 199.978 0 0 1-3.895-3.219 233.562 233.562 0 0 1-3.82-3.262 433.858 433.858 0 0 1-3.77-3.336 306.181 306.181 0 0 1-7.343-6.847 302.216 302.216 0 0 1-7.121-7.125 278.826 278.826 0 0 1-3.465-3.653 253.32 253.32 0 0 1-3.403-3.71 273.91 273.91 0 0 1-6.601-7.59 212.145 212.145 0 0 1-3.192-3.872c-1.046-1.304-2.09-2.613-3.136-3.925a257.029 257.029 0 0 1-3.067-3.993c-1.007-1.34-2-2.68-2.98-4.02a280.354 280.354 0 0 1-5.793-8.246 371.632 371.632 0 0 1-2.781-4.198 210.194 210.194 0 0 1-2.7-4.247 234.92 234.92 0 0 1-2.62-4.265 298.446 298.446 0 0 1-5.048-8.719 398.023 398.023 0 0 1-2.406-4.418 208.365 208.365 0 0 1-2.328-4.46c-.766-1.505-1.512-3-2.238-4.481a243.974 243.974 0 0 1-2.18-4.563 309.903 309.903 0 0 1-2.086-4.566 304.939 304.939 0 0 1-2.012-4.617 285.085 285.085 0 0 1-3.761-9.32 329.177 329.177 0 0 1-1.782-4.75 251.59 251.59 0 0 1-1.675-4.731 359.705 359.705 0 0 1-1.598-4.774 326.847 326.847 0 0 1-1.512-4.804c-.488-1.606-.96-3.215-1.418-4.825a223.85 223.85 0 0 1-1.351-4.87 344.008 344.008 0 0 1-1.25-4.864c-.41-1.625-.801-3.258-1.176-4.895a407.363 407.363 0 0 1-1.086-4.918c-.344-1.632-.672-3.27-.992-4.902-.32-1.637-.625-3.293-.914-4.973-.29-1.644-.563-3.296-.824-4.953a299.681 299.681 0 0 1-1.387-9.972c-.2-1.668-.387-3.328-.559-4.973a270.908 270.908 0 0 1-.48-5.035c-.14-1.68-.27-3.344-.39-5a312.874 312.874 0 0 1-.52-10.055 266.877 266.877 0 0 1-.13-5.023c-.027-1.684-.042-3.36-.042-5.035 0-1.676.015-3.352.043-5.024.03-1.668.074-3.348.129-5.027a307.554 307.554 0 0 1 .515-10.032 292.973 292.973 0 0 1 .871-10.035c.16-1.672.348-3.34.559-5 .21-1.664.43-3.328.652-4.996.23-1.652.477-3.305.735-4.953a290.046 290.046 0 0 1 3.82-19.777 286.29 286.29 0 0 1 1.168-4.868c.402-1.636.824-3.27 1.262-4.906.437-1.636.882-3.25 1.34-4.84.457-1.613.933-3.226 1.425-4.828a282.08 282.08 0 0 1 4.793-14.32 226.78 226.78 0 0 1 1.754-4.703 352.05 352.05 0 0 1 1.848-4.684 279.264 279.264 0 0 1 6.027-13.847 375.906 375.906 0 0 1 2.16-4.532 254.88 254.88 0 0 1 2.258-4.504c.762-1.492 1.54-2.98 2.324-4.465a282.26 282.26 0 0 1 2.395-4.398c.808-1.46 1.64-2.93 2.492-4.398a241.26 241.26 0 0 1 2.555-4.325 308.234 308.234 0 0 1 2.633-4.289c.886-1.422 1.789-2.836 2.707-4.242a309.03 309.03 0 0 1 5.636-8.34 222.973 222.973 0 0 1 2.918-4.086c.98-1.36 1.98-2.707 2.996-4.043 1.016-1.34 2.04-2.668 3.07-3.992a456.346 456.346 0 0 1 3.118-3.926c1.05-1.308 2.125-2.609 3.223-3.898a230.27 230.27 0 0 1 3.257-3.816 377.182 377.182 0 0 1 3.336-3.77 306.18 306.18 0 0 1 3.403-3.711 340.734 340.734 0 0 1 3.453-3.64 306.693 306.693 0 0 1 3.535-3.594 275.577 275.577 0 0 1 3.582-3.52 278.495 278.495 0 0 1 3.648-3.465 300.956 300.956 0 0 1 3.711-3.402 271.243 271.243 0 0 1 7.594-6.602 212.146 212.146 0 0 1 3.871-3.191c1.301-1.047 2.61-2.09 3.926-3.137a276.742 276.742 0 0 1 3.988-3.066c1.344-1.008 2.684-2 4.024-2.98a280.35 280.35 0 0 1 12.445-8.574c1.406-.919 2.82-1.817 4.242-2.7a265.444 265.444 0 0 1 4.266-2.621c1.434-.86 2.883-1.719 4.355-2.57 1.45-.84 2.903-1.665 4.368-2.477a397.44 397.44 0 0 1 4.414-2.406c1.472-.79 2.96-1.567 4.465-2.329a368.626 368.626 0 0 1 4.48-2.242 289.617 289.617 0 0 1 13.746-6.273 285.088 285.088 0 0 1 9.32-3.762c1.563-.601 3.141-1.191 4.735-1.773 1.57-.575 3.148-1.133 4.734-1.676a297.204 297.204 0 0 1 4.774-1.602c1.593-.515 3.195-1.02 4.804-1.507 1.606-.493 3.207-.965 4.805-1.422 1.613-.465 3.238-.914 4.871-1.348 1.629-.434 3.25-.852 4.863-1.254 1.625-.406 3.254-.797 4.891-1.172 1.637-.375 3.277-.738 4.918-1.09 1.637-.34 3.27-.672 4.906-.992 1.637-.316 3.293-.62 4.973-.914 1.637-.289 3.285-.562 4.95-.82a394.23 394.23 0 0 1 4.984-.738c1.656-.235 3.32-.45 4.988-.653 1.672-.199 3.328-.387 4.976-.558a240.72 240.72 0 0 1 5.032-.477c1.68-.145 3.347-.273 5.007-.39a301.549 301.549 0 0 1 10.055-.52c1.664-.059 3.332-.102 5.004-.125 1.672-.027 3.363-.04 5.067-.035 1.68 0 3.351.015 5.023.043 1.672.03 3.348.074 5.031.129 1.68.058 3.356.132 5.028.218a270.284 270.284 0 0 1 10.04.691c1.67.145 3.338.305 4.995.477 1.672.16 3.34.348 5.004.559 1.664.21 3.328.43 4.996.652a290.075 290.075 0 0 1 24.73 4.555c1.637.379 3.258.766 4.871 1.168 1.633.402 3.27.824 4.903 1.262 1.636.437 3.25.882 4.84 1.34 1.617.457 3.226.933 4.828 1.425a282.081 282.081 0 0 1 14.316 4.79c1.578.57 3.145 1.156 4.707 1.757 1.563.602 3.121 1.219 4.684 1.848 1.558.629 3.11 1.27 4.66 1.93 1.55.66 3.082 1.324 4.59 2 1.543.683 3.074 1.382 4.597 2.097 1.524.715 3.036 1.434 4.532 2.16 1.508.739 3.011 1.492 4.504 2.258a301.59 301.59 0 0 1 4.464 2.324c1.473.786 2.938 1.582 4.403 2.395 1.46.808 2.926 1.64 4.394 2.492 1.453.836 2.895 1.688 4.325 2.555 1.433.863 2.863 1.742 4.289 2.633 1.425.886 2.84 1.789 4.246 2.707 1.406.918 2.797 1.84 4.168 2.77 1.394.944 2.785 1.898 4.172 2.866 1.382.965 2.746 1.938 4.086 2.918 1.355.98 2.703 1.98 4.039 2.996 1.34 1.016 2.671 2.04 3.996 3.07a525.592 525.592 0 0 1 3.922 3.118 199.754 199.754 0 0 1 3.894 3.215 251.524 251.524 0 0 1 3.82 3.265 338.097 338.097 0 0 1 3.77 3.336 257.012 257.012 0 0 1 3.71 3.403 307.512 307.512 0 0 1 3.634 3.445 302.22 302.22 0 0 1 10.59 10.773 334.944 334.944 0 0 1 3.398 3.711 271.246 271.246 0 0 1 3.32 3.75 310.06 310.06 0 0 1 3.286 3.844 229.4 229.4 0 0 1 3.187 3.871c1.047 1.301 2.094 2.61 3.137 3.926a251.226 251.226 0 0 1 3.066 3.988 366.77 366.77 0 0 1 2.98 4.024 280.352 280.352 0 0 1 8.578 12.445c.915 1.406 1.817 2.82 2.696 4.242.89 1.414 1.762 2.836 2.621 4.266a320.748 320.748 0 0 1 2.574 4.355c.836 1.45 1.66 2.903 2.473 4.368a342.092 342.092 0 0 1 2.406 4.414c.79 1.472 1.567 2.96 2.332 4.465a434.87 434.87 0 0 1 2.239 4.48 289.617 289.617 0 0 1 6.273 13.746 285.086 285.086 0 0 1 3.766 9.32c.597 1.563 1.187 3.141 1.773 4.739.574 1.57 1.133 3.144 1.676 4.73a341.67 341.67 0 0 1 1.598 4.774 312.68 312.68 0 0 1 1.511 4.804c.489 1.606.961 3.207 1.418 4.805a217.87 217.87 0 0 1 1.352 4.871c.433 1.629.848 3.25 1.25 4.863.41 1.625.8 3.254 1.176 4.891.37 1.637.734 3.277 1.086 4.918.343 1.637.671 3.27.992 4.906.32 1.637.625 3.293.914 4.969.289 1.648.562 3.297.824 4.953.258 1.66.504 3.32.734 4.985.235 1.656.454 3.32.653 4.988a359.34 359.34 0 0 1 1.05 10.008c.149 1.68.282 3.347.391 5.007a301.549 301.549 0 0 1 .516 10.055c.058 1.668.101 3.344.129 5.024.027 1.68.035 3.363.02 5.047 0 1.68-.016 3.351-.048 5.023-.027 1.672-.07 3.352-.129 5.035zm0 0"></path><path fill="none" stroke-width=".49054" stroke-linecap="butt" stroke-linejoin="miter" stroke="#ffffff" stroke-opacity="1" stroke-miterlimit="10" d="M251.407 79.117l-4.184-11.496M452.782 632.384l-4.188-11.496M256.141 77.438l-3.984-11.563M447.844 634.13l-3.98-11.567M260.918 75.84l-3.78-11.633M442.868 635.798l-3.781-11.633M265.72 74.328l-3.575-11.699M437.86 637.372l-3.574-11.7M270.524 72.91l-3.375-11.765M432.856 638.856l-3.375-11.761M228.18 88.75l-5.176-11.098M477 622.352l-5.175-11.097M232.746 86.664l-4.976-11.183M472.235 624.52l-4.98-11.18M237.364 84.652l-4.782-11.261M467.423 626.614l-4.782-11.262M242.012 82.723l-4.578-11.34M462.571 628.622l-4.582-11.34M246.672 80.887l-4.383-11.418M457.715 630.536l-4.386-11.422M184.688 113.91l-7.047-10.066M522.364 596.157l-7.047-10.062M188.82 111.063l-6.867-10.184M518.048 599.122l-6.868-10.18M193.02 108.277l-6.688-10.296M513.673 602.024l-6.688-10.297M197.266 105.57l-6.508-10.41M509.243 604.845l-6.504-10.41M201.528 102.95l-6.317-10.516M504.794 607.571l-6.32-10.515M210.25 97.902L204.31 87.18M495.696 612.821l-5.945-10.719M214.672 95.496l-5.754-10.82M491.083 615.329l-5.754-10.82M219.137 93.168l-5.559-10.918M486.426 617.75l-5.558-10.913M223.618 90.926l-5.372-11.004M481.755 620.083l-5.368-11.008M164.754 129.227l-7.91-9.426M543.16 580.2l-7.91-9.426M168.625 126.031l-7.742-9.558M539.122 583.532l-7.746-9.562M172.563 122.895l-7.57-9.692M535.012 586.798l-7.57-9.692M176.555 119.828l-7.402-9.82M530.848 589.993l-7.398-9.82M180.574 116.848l-7.222-9.946M526.653 593.098l-7.226-9.94M149.801 142.7l-8.55-8.856M558.755 566.16l-8.551-8.855M153.45 139.235l-8.395-9.004M554.946 569.77l-8.394-9M157.16 135.832l-8.234-9.148M551.079 573.317l-8.238-9.144M160.91 132.512l-8.074-9.285M547.169 576.778l-8.074-9.289M113.91 184.688l-10.066-7.047M596.157 522.364l-10.062-7.047M116.828 180.602l-9.945-7.227M593.118 526.626l-9.941-7.223M119.824 176.559l-9.816-7.399M589.997 530.844l-9.816-7.398M122.895 172.567l-9.692-7.575M586.802 535.009l-9.692-7.57M126.012 168.649l-9.559-7.743M583.552 539.095l-9.563-7.739M129.235 164.75l-9.426-7.91M580.196 543.165l-9.426-7.91M132.492 160.934l-9.289-8.074M576.798 547.141l-9.29-8.074M135.828 157.164l-9.144-8.234M573.321 551.075l-9.144-8.234M139.23 153.453l-9-8.394M569.774 554.942l-9-8.39M142.684 149.813l-8.856-8.551M566.173 558.74l-8.852-8.552M102.934 201.555l-10.52-6.316M607.587 504.766l-10.516-6.32M105.567 197.266l-10.41-6.5M604.845 509.239l-10.407-6.504M108.274 193.024l-10.297-6.688M602.024 513.665l-10.297-6.684M111.043 188.848l-10.183-6.863M599.141 518.02l-10.18-6.867M88.75 228.18l-11.098-5.176M622.352 477l-11.097-5.175M90.91 223.645l-11.004-5.367M620.099 481.723l-11.008-5.367M93.168 219.14l-10.918-5.562M617.755 486.423l-10.918-5.563M95.492 214.68l-10.82-5.754M615.333 491.079l-10.824-5.754M97.887 210.278l-10.723-5.942M612.84 495.665l-10.722-5.942M72.902 270.555l-11.765-3.375M638.864 432.82l-11.762-3.37M74.328 265.723l-11.699-3.574M637.376 437.856l-11.7-3.578M75.84 260.922l-11.633-3.781M635.798 442.86l-11.633-3.777M77.43 256.172l-11.567-3.98M634.142 447.813l-11.567-3.98M79.121 251.403l-11.496-4.184M632.38 452.786l-11.496-4.184M80.875 246.703l-11.418-4.382M630.548 457.684l-11.422-4.383M82.723 242.02l-11.344-4.586M628.626 462.567l-11.344-4.582M84.652 237.368l-11.265-4.782M626.614 467.419l-11.262-4.782M86.652 232.774l-11.183-4.977M624.532 472.204l-11.18-4.977M66.14 299.95l-12.074-2.13M645.938 402.184l-12.074-2.129M67.05 295.008l-12.03-2.336M644.985 407.333l-12.031-2.34M68.047 290.075l-11.984-2.547M643.938 412.473l-11.984-2.543M69.133 285.157l-11.93-2.754M642.802 417.602l-11.934-2.754M70.3 280.29l-11.882-2.961M641.583 422.676l-11.879-2.96M62.89 324.883l-12.245-1.07M649.36 376.192l-12.246-1.07M63.367 319.883l-12.222-1.285M648.86 381.403l-12.222-1.285M63.926 314.883l-12.188-1.496M648.267 386.618l-12.192-1.496M64.578 309.887l-12.152-1.707M647.579 391.825l-12.152-1.707M65.313 304.934l-12.118-1.918M646.81 396.985l-12.122-1.918M62.89 375.122l-12.245 1.07M649.36 323.813l-12.246 1.07M62.5 370.114l-12.27.86M649.77 329.032l-12.265.86M62.2 365.086l-12.29.649M650.095 334.27l-12.29.645M61.98 360.06l-12.296.429M650.321 339.512l-12.3.43M61.852 355.036l-12.309.214M650.458 344.754l-12.309.215M61.852 344.977l-12.309-.21M650.458 355.239l-12.309-.215M61.98 339.95l-12.296-.43M650.321 360.485l-12.3-.43M62.2 334.918l-12.29-.644M650.095 365.727l-12.29-.644M62.496 329.918l-12.265-.855M649.774 370.942l-12.27-.856M66.14 400.055l-12.074 2.13M645.938 297.82l-12.074 2.13M65.316 395.098L53.2 397.02M646.806 302.985l-12.122 1.918M64.578 390.118l-12.152 1.71M647.579 308.176l-12.156 1.707M63.926 385.126l-12.188 1.496M648.263 313.38l-12.188 1.495M63.367 380.153l-12.218 1.285M648.856 318.567l-12.222 1.285M70.309 419.743l-11.88 2.965M641.575 277.297l-11.879 2.961M69.133 414.852l-11.93 2.754M642.802 282.399l-11.934 2.754M68.047 409.934l-11.98 2.547M643.938 287.524l-11.984 2.547M67.055 405.024l-12.031 2.34M644.977 292.641l-12.027 2.34M88.75 471.825L77.652 477M622.352 223.004l-11.097 5.176M86.664 467.255l-11.183 4.98M624.52 227.77l-11.18 4.976M84.652 462.641l-11.261 4.782M626.614 232.582l-11.262 4.782M82.723 457.989l-11.34 4.582M628.622 237.434l-11.34 4.578M80.887 453.329l-11.418 4.386M630.536 242.29l-11.422 4.382M79.113 448.59l-11.496 4.184M632.384 247.227l-11.496 4.187M77.438 443.864l-11.563 3.98M634.13 252.157l-11.567 3.984M75.84 439.087l-11.633 3.78M635.798 257.137l-11.633 3.781M74.328 434.286L62.63 437.86M637.372 262.145l-11.7 3.574M72.91 429.481l-11.765 3.375M638.856 267.149l-11.761 3.375M97.902 489.75l-10.722 5.946M612.821 204.309l-10.719 5.941M95.496 485.329l-10.82 5.754M615.329 208.918l-10.82 5.754M93.168 480.868l-10.918 5.558M617.75 213.578l-10.913 5.559M90.926 476.387l-11.004 5.368M620.083 218.246l-11.008 5.372M113.91 515.317l-10.066 7.047M596.157 177.64l-10.062 7.048M111.063 511.18l-10.184 6.868M599.122 181.953l-10.18 6.868M108.277 506.985l-10.296 6.688M602.024 186.332l-10.297 6.688M105.57 502.739l-10.41 6.504M604.845 190.758l-10.41 6.508M102.95 498.473l-10.516 6.32M607.571 195.211l-10.515 6.317M142.7 550.204l-8.856 8.55M566.16 141.25l-8.855 8.551M139.235 546.552l-9.004 8.394M569.77 145.055l-9 8.394M135.832 542.84l-9.148 8.239M573.317 148.926l-9.144 8.234M132.512 539.095l-9.285 8.074M576.778 152.836l-9.289 8.074M129.227 535.25l-9.426 7.91M580.2 156.844l-9.426 7.91M126.031 531.376l-9.558 7.746M583.532 160.883l-9.562 7.742M122.895 527.442l-9.692 7.57M586.798 164.992l-9.692 7.57M119.828 523.45l-9.82 7.398M589.993 169.153l-9.82 7.402M116.848 519.427l-9.946 7.226M593.098 173.352l-9.94 7.222M164.754 570.774l-7.91 9.426M543.16 119.8l-7.91 9.427M160.934 567.509l-8.074 9.289M547.141 123.203l-8.074 9.29M157.164 564.177l-8.234 9.144M551.075 126.684l-8.234 9.144M153.453 560.774l-8.394 9M554.942 130.23l-8.39 9M149.82 557.325l-8.546 8.855M558.731 133.82l-8.55 8.856M184.688 586.095l-7.047 10.062M522.364 103.844l-7.047 10.066M180.602 583.177l-7.227 9.941M526.626 106.883l-7.223 9.945M176.559 580.18l-7.399 9.817M530.844 110.008l-7.398 9.816M172.567 577.11l-7.575 9.692M535.009 113.203l-7.57 9.692M168.649 573.99l-7.743 9.562M539.095 116.453l-7.739 9.559M228.18 611.255l-5.176 11.097M477 77.652l-5.175 11.098M223.645 609.09l-5.367 11.009M481.723 79.906l-5.367 11.004M219.14 606.837l-5.562 10.918M486.423 82.25l-5.563 10.918M214.68 604.509l-5.754 10.824M491.079 84.672l-5.754 10.82M210.278 602.118l-5.942 10.723M495.665 87.164l-5.942 10.723M201.555 597.071l-6.316 10.516M504.766 92.414l-6.32 10.52M197.266 594.438l-6.5 10.407M509.239 95.156l-6.504 10.41M193.024 591.727l-6.688 10.297M513.665 97.977l-6.684 10.297M188.848 588.962l-6.863 10.18M518.02 100.86l-6.867 10.183M251.407 620.888l-4.184 11.496M452.782 67.621l-4.188 11.496M246.703 619.126l-4.382 11.422M457.684 69.457l-4.383 11.418M242.02 617.282l-4.586 11.344M462.567 71.379l-4.582 11.344M237.368 615.352l-4.782 11.262M467.419 73.387l-4.782 11.265M232.774 613.352l-4.977 11.18M472.204 75.469l-4.977 11.183M270.555 627.102l-3.375 11.762M432.82 61.137l-3.37 11.765M265.723 625.677l-3.574 11.699M437.856 62.629l-3.578 11.7M260.922 624.165l-3.781 11.633M442.86 64.207l-3.777 11.633M256.172 622.575l-3.98 11.567M447.813 65.863l-3.98 11.567M324.883 637.114l-1.07 12.246M376.192 50.645l-1.07 12.246M319.883 636.638l-1.285 12.222M381.403 51.145l-1.285 12.222M314.883 636.075l-1.496 12.192M386.618 51.738l-1.496 12.188M309.887 635.427l-1.707 12.152M391.825 52.426l-1.707 12.152M304.934 634.688l-1.918 12.122M396.985 53.195l-1.918 12.118M299.946 633.86l-2.13 12.078M402.188 54.066l-2.129 12.075M295.008 632.954l-2.336 12.031M407.333 55.02l-2.34 12.03M290.059 631.954l-2.547 11.98M412.493 56.07l-2.551 11.98M285.157 630.868l-2.754 11.934M417.602 57.203l-2.754 11.93M280.29 629.704l-2.961 11.879M422.676 58.418l-2.96 11.883M344.977 638.15l-.21 12.308M355.239 49.543l-.215 12.309M339.95 638.02l-.43 12.301M360.485 49.684l-.43 12.297M334.918 637.806l-.644 12.289M365.727 49.91l-.644 12.29M329.918 637.505l-.855 12.27M370.942 50.23l-.856 12.266M376.192 649.36l-1.07-12.246M324.883 62.89l-1.07-12.245M370.973 649.77l-.86-12.265M329.891 62.5l-.86-12.27M365.735 650.095l-.649-12.29M334.915 62.2l-.645-12.29M360.489 650.321l-.43-12.3M339.942 61.98l-.43-12.296M355.27 650.458l-.215-12.309M344.95 61.856l-.215-12.313M422.708 641.575l-2.965-11.879M280.258 70.309l-2.96-11.88M417.606 642.802l-2.754-11.934M285.153 69.133l-2.754-11.93M412.481 643.938l-2.547-11.984M290.07 68.047l-2.546-11.98M407.364 644.977l-2.34-12.027M294.98 67.055l-2.339-12.031M402.176 645.942l-2.129-12.078M299.954 66.14l-2.13-12.077M397.02 646.806l-1.922-12.122M304.903 65.316L302.985 53.2M391.829 647.579l-1.711-12.156M309.883 64.578l-1.707-12.152M386.622 648.263l-1.496-12.188M314.875 63.926l-1.496-12.188M381.438 648.856l-1.285-12.222M319.852 63.367l-1.285-12.218"></path><path fill="none" stroke-width=".73581" stroke-linecap="butt" stroke-linejoin="miter" stroke="#ffffff" stroke-opacity="1" stroke-miterlimit="10" d="M146.219 146.219l-13.008-13.008M566.794 566.794l-13.008-13.008M61.809 350H43.414M656.59 350h-18.394M146.219 553.786l-13.008 13.008M566.794 133.211l-13.008 13.008M350 656.59v-18.394M350 61.809V43.414M100.379 494.118l-15.895 9.176M615.516 196.711l-15.89 9.176M71.559 424.61l-17.7 4.742M646.145 270.653l-17.703 4.742M205.88 599.622l-9.177 15.894M503.298 84.488l-9.176 15.891M275.391 628.442l-4.742 17.7M429.356 53.863l-4.746 17.7M646.145 429.356l-17.703-4.746M71.563 275.391l-17.704-4.742M615.516 503.298l-15.894-9.176M100.379 205.88l-15.89-9.177M503.294 615.516l-9.176-15.89M205.887 100.379l-9.176-15.895M429.352 646.145l-4.742-17.703M275.395 71.559l-4.742-17.7"></path><path fill="none" stroke-width=".49054" stroke-linecap="butt" stroke-linejoin="miter" stroke="#ffffff" stroke-opacity="1" stroke-miterlimit="10" d="M644.325 350c0 162.551-131.774 294.325-294.325 294.325-162.55 0-294.324-131.774-294.324-294.325C55.676 187.45 187.449 55.676 350 55.676c162.551 0 294.325 131.773 294.325 294.324zm0 0"></path><use xlink:href="#a" x="340.279" y="39.887" fill="#ffffff" fill-opacity="1"></use><use xlink:href="#b" x="346.789" y="39.804" fill="#ffffff" fill-opacity="1"></use><use xlink:href="#c" x="353.16" y="39.753" fill="#ffffff" fill-opacity="1"></use><use xlink:href="#d" x="263.55" y="51.938" fill="#ffffff" fill-opacity="1"></use><use xlink:href="#e" x="269.762" y="50.211" fill="#ffffff" fill-opacity="1"></use><use xlink:href="#f" x="189.325" y="84.524" fill="#ffffff" fill-opacity="1"></use><use xlink:href="#g" x="194.875" y="81.237" fill="#ffffff" fill-opacity="1"></use><use xlink:href="#h" x="125.795" y="135.535" fill="#ffffff" fill-opacity="1"></use><use xlink:href="#i" x="130.294" y="130.927" fill="#ffffff" fill-opacity="1"></use><use xlink:href="#j" x="77.921" y="200.758" fill="#ffffff" fill-opacity="1"></use><use xlink:href="#k" x="81.088" y="195.14" fill="#ffffff" fill-opacity="1"></use><use xlink:href="#l" x="48.609" y="276.01" fill="#ffffff" fill-opacity="1"></use><use xlink:href="#m" x="50.211" y="269.767" fill="#ffffff" fill-opacity="1"></use><use xlink:href="#n" x="39.821" y="356.565" fill="#ffffff" fill-opacity="1"></use><use xlink:href="#o" x="39.716" y="350.17" fill="#ffffff" fill-opacity="1"></use><use xlink:href="#p" x="52.913" y="439.757" fill="#ffffff" fill-opacity="1"></use><use xlink:href="#q" x="51.116" y="433.565" fill="#ffffff" fill-opacity="1"></use><use xlink:href="#r" x="49.451" y="427.342" fill="#ffffff" fill-opacity="1"></use><use xlink:href="#s" x="86.304" y="513.569" fill="#ffffff" fill-opacity="1"></use><use xlink:href="#t" x="82.956" y="508.06" fill="#ffffff" fill-opacity="1"></use><use xlink:href="#u" x="79.729" y="502.482" fill="#ffffff" fill-opacity="1"></use><use xlink:href="#v" x="137.468" y="576.043" fill="#ffffff" fill-opacity="1"></use><use xlink:href="#w" x="132.822" y="571.581" fill="#ffffff" fill-opacity="1"></use><use xlink:href="#x" x="128.263" y="567.023" fill="#ffffff" fill-opacity="1"></use><use xlink:href="#y" x="203.428" y="623.529" fill="#ffffff" fill-opacity="1"></use><use xlink:href="#z" x="197.78" y="620.426" fill="#ffffff" fill-opacity="1"></use><use xlink:href="#A" x="192.205" y="617.199" fill="#ffffff" fill-opacity="1"></use><use xlink:href="#B" x="278.273" y="651.935" fill="#ffffff" fill-opacity="1"></use><use xlink:href="#C" x="272.023" y="650.386" fill="#ffffff" fill-opacity="1"></use><use xlink:href="#D" x="265.802" y="648.705" fill="#ffffff" fill-opacity="1"></use><use xlink:href="#E" x="359.639" y="660.121" fill="#ffffff" fill-opacity="1"></use><use xlink:href="#F" x="353.255" y="660.304" fill="#ffffff" fill-opacity="1"></use><use xlink:href="#G" x="346.746" y="660.247" fill="#ffffff" fill-opacity="1"></use><use xlink:href="#H" x="439.718" y="647.096" fill="#ffffff" fill-opacity="1"></use><use xlink:href="#I" x="433.527" y="648.893" fill="#ffffff" fill-opacity="1"></use><use xlink:href="#J" x="427.308" y="650.556" fill="#ffffff" fill-opacity="1"></use><use xlink:href="#K" x="513.26" y="613.89" fill="#ffffff" fill-opacity="1"></use><use xlink:href="#L" x="507.749" y="617.23" fill="#ffffff" fill-opacity="1"></use><use xlink:href="#M" x="502.171" y="620.452" fill="#ffffff" fill-opacity="1"></use><use xlink:href="#N" x="576.319" y="562.241" fill="#ffffff" fill-opacity="1"></use><use xlink:href="#O" x="571.862" y="566.893" fill="#ffffff" fill-opacity="1"></use><use xlink:href="#P" x="567.308" y="571.455" fill="#ffffff" fill-opacity="1"></use><use xlink:href="#Q" x="623.386" y="496.839" fill="#ffffff" fill-opacity="1"></use><use xlink:href="#R" x="620.273" y="502.483" fill="#ffffff" fill-opacity="1"></use><use xlink:href="#S" x="617.047" y="508.057" fill="#ffffff" fill-opacity="1"></use><use xlink:href="#T" x="652.134" y="420.873" fill="#ffffff" fill-opacity="1"></use><use xlink:href="#U" x="650.603" y="427.136" fill="#ffffff" fill-opacity="1"></use><use xlink:href="#V" x="648.941" y="433.359" fill="#ffffff" fill-opacity="1"></use><use xlink:href="#W" x="660.121" y="340.505" fill="#ffffff" fill-opacity="1"></use><use xlink:href="#X" x="660.304" y="346.877" fill="#ffffff" fill-opacity="1"></use><use xlink:href="#Y" x="660.246" y="353.396" fill="#ffffff" fill-opacity="1"></use><use xlink:href="#Z" x="647.021" y="260.032" fill="#ffffff" fill-opacity="1"></use><use xlink:href="#aa" x="648.822" y="266.213" fill="#ffffff" fill-opacity="1"></use><use xlink:href="#ab" x="650.493" y="272.44" fill="#ffffff" fill-opacity="1"></use><use xlink:href="#ac" x="613.715" y="186.461" fill="#ffffff" fill-opacity="1"></use><use xlink:href="#ad" x="617.058" y="191.97" fill="#ffffff" fill-opacity="1"></use><use xlink:href="#ae" x="620.294" y="197.551" fill="#ffffff" fill-opacity="1"></use><use xlink:href="#af" x="562.202" y="123.65" fill="#ffffff" fill-opacity="1"></use><use xlink:href="#ag" x="566.862" y="128.111" fill="#ffffff" fill-opacity="1"></use><use xlink:href="#ah" x="571.421" y="132.661" fill="#ffffff" fill-opacity="1"></use><use xlink:href="#ai" x="496.507" y="76.437" fill="#ffffff" fill-opacity="1"></use><use xlink:href="#aj" x="502.155" y="79.539" fill="#ffffff" fill-opacity="1"></use><use xlink:href="#ak" x="507.735" y="82.763" fill="#ffffff" fill-opacity="1"></use><use xlink:href="#al" x="420.392" y="47.753" fill="#ffffff" fill-opacity="1"></use><use xlink:href="#am" x="426.659" y="49.276" fill="#ffffff" fill-opacity="1"></use><use xlink:href="#an" x="432.883" y="50.928" fill="#ffffff" fill-opacity="1"></use><use xlink:href="#ao" x="103.04" y="117.7" fill="#ffffff" fill-opacity="1"></use><use xlink:href="#ap" x="110.235" y="110.294" fill="#ffffff" fill-opacity="1"></use><use xlink:href="#aq" x="11.333" y="365.889" fill="#ffffff" fill-opacity="1"></use><use xlink:href="#ar" x="11.077" y="357.336" fill="#ffffff" fill-opacity="1"></use><use xlink:href="#as" x="10.968" y="348.739" fill="#ffffff" fill-opacity="1"></use><use xlink:href="#at" x="11.056" y="342.309" fill="#ffffff" fill-opacity="1"></use><use xlink:href="#au" x="115.43" y="594.78" fill="#ffffff" fill-opacity="1"></use><use xlink:href="#av" x="110.463" y="589.934" fill="#ffffff" fill-opacity="1"></use><use xlink:href="#aw" x="371.013" y="688.386" fill="#ffffff" fill-opacity="1"></use><use xlink:href="#ax" x="364.095" y="688.754" fill="#ffffff" fill-opacity="1"></use><use xlink:href="#ay" x="354.843" y="688.931" fill="#ffffff" fill-opacity="1"></use><use xlink:href="#az" x="345.266" y="689" fill="#ffffff" fill-opacity="1"></use><use xlink:href="#aA" x="337.251" y="688.808" fill="#ffffff" fill-opacity="1"></use><use xlink:href="#aB" x="596.383" y="582.885" fill="#ffffff" fill-opacity="1"></use><use xlink:href="#aC" x="591.621" y="587.883" fill="#ffffff" fill-opacity="1"></use><use xlink:href="#aD" x="688.543" y="330.913" fill="#ffffff" fill-opacity="1"></use><use xlink:href="#aE" x="688.939" y="343.813" fill="#ffffff" fill-opacity="1"></use><use xlink:href="#aF" x="689.031" y="351.446" fill="#ffffff" fill-opacity="1"></use><use xlink:href="#aG" x="688.945" y="357.866" fill="#ffffff" fill-opacity="1"></use><use xlink:href="#aH" x="581.685" y="102.457" fill="#ffffff" fill-opacity="1"></use><use xlink:href="#aI" x="589.107" y="109.592" fill="#ffffff" fill-opacity="1"></use><use xlink:href="#aJ" x="326.81" y="11.731" fill="#ffffff" fill-opacity="1"></use><use xlink:href="#aK" x="337.258" y="11.193" fill="#ffffff" fill-opacity="1"></use><use xlink:href="#aL" x="346.512" y="10.93" fill="#ffffff" fill-opacity="1"></use><use xlink:href="#aM" x="354.134" y="10.993" fill="#ffffff" fill-opacity="1"></use><use xlink:href="#aN" x="362.157" y="11.173" fill="#ffffff" fill-opacity="1"></use><path fill="none" stroke-width=".73581" stroke-linecap="butt" stroke-linejoin="miter" stroke="#ffffff" stroke-opacity="1" stroke-miterlimit="10" d="M114.707 99.906C170.49 47.418 243.832 13.363 324.985 7.52M7.055 332.586c4.187-83.758 38.383-159.613 92.058-217.031M100.145 585.552c-54.25-57.532-88.856-133.79-93.082-218.048M326.375 692.583c-82.136-5.582-156.347-40.05-212.555-93.324M584.157 601.161c-56.117 52.34-129.8 86.09-211.238 91.465M692.86 369.098c-4.55 82.957-38.543 158.067-91.703 215.063M603.278 118.137c51.602 56.332 84.653 129.934 89.489 211.133M373.794 7.434C454.29 12.94 527.169 46.188 582.93 97.695"></path><path fill="none" stroke-width="4.9054" stroke-linecap="butt" stroke-linejoin="miter" stroke="#ffffff" stroke-opacity="1" stroke-miterlimit="10" d="M635.832 350c0-157.82-127.973-285.762-285.832-285.762C192.137 64.238 64.164 192.18 64.164 350S192.137 635.758 350 635.758c157.86 0 285.832-127.938 285.832-285.758zm0 0"></path></svg>